solid CATIA STL
  facet normal  0.000000e+000  0.000000e+000 -1.000000e+000
    outer loop
      vertex -2.000000e+001 -5.000000e+000  0.000000e+000
      vertex -2.000000e+001 -1.500000e+000  0.000000e+000
      vertex -3.436932e+000 -1.500000e+000  0.000000e+000
    endloop
  endfacet
  facet normal  0.000000e+000  -0.000000e+000 -1.000000e+000
    outer loop
      vertex -2.000000e+001 -5.000000e+000  0.000000e+000
      vertex -3.436932e+000 -1.500000e+000  0.000000e+000
      vertex -2.053960e+000 -3.137475e+000  0.000000e+000
    endloop
  endfacet
  facet normal  0.000000e+000  -0.000000e+000 -1.000000e+000
    outer loop
      vertex -2.000000e+001 -5.000000e+000  0.000000e+000
      vertex -2.053960e+000 -3.137475e+000  0.000000e+000
      vertex  1.347406e-015 -3.750000e+000  0.000000e+000
    endloop
  endfacet
  facet normal  0.000000e+000  -0.000000e+000 -1.000000e+000
    outer loop
      vertex -2.000000e+001 -5.000000e+000  0.000000e+000
      vertex  1.347406e-015 -3.750000e+000  0.000000e+000
      vertex  2.000000e+001 -5.000000e+000  0.000000e+000
    endloop
  endfacet
  facet normal  0.000000e+000  0.000000e+000 -1.000000e+000
    outer loop
      vertex  2.000000e+001 -1.500000e+000  0.000000e+000
      vertex  2.000000e+001 -5.000000e+000  0.000000e+000
      vertex  1.347406e-015 -3.750000e+000  0.000000e+000
    endloop
  endfacet
  facet normal  0.000000e+000  0.000000e+000 -1.000000e+000
    outer loop
      vertex  2.000000e+001 -1.500000e+000  0.000000e+000
      vertex  1.347406e-015 -3.750000e+000  0.000000e+000
      vertex  2.053960e+000 -3.137475e+000  0.000000e+000
    endloop
  endfacet
  facet normal  0.000000e+000  0.000000e+000 -1.000000e+000
    outer loop
      vertex  2.000000e+001 -1.500000e+000  0.000000e+000
      vertex  2.053960e+000 -3.137475e+000  0.000000e+000
      vertex  3.436932e+000 -1.500000e+000  0.000000e+000
    endloop
  endfacet
  facet normal  0.000000e+000 -9.999999e-001  0.000000e+000
    outer loop
      vertex  3.436932e+000 -1.500000e+000  0.000000e+000
      vertex  3.436932e+000 -1.500000e+000 -9.500000e-001
      vertex  2.000000e+001 -1.500000e+000  0.000000e+000
    endloop
  endfacet
  facet normal  0.000000e+000 -9.999999e-001  -0.000000e+000
    outer loop
      vertex  2.000000e+001 -1.500000e+000  0.000000e+000
      vertex  3.436932e+000 -1.500000e+000 -9.500000e-001
      vertex  2.000000e+001 -1.500000e+000 -9.500000e-001
    endloop
  endfacet
  facet normal  0.000000e+000 -9.999999e-001  0.000000e+000
    outer loop
      vertex -2.000000e+001 -1.500000e+000  0.000000e+000
      vertex -2.000000e+001 -1.500000e+000 -9.500000e-001
      vertex -3.436932e+000 -1.500000e+000  0.000000e+000
    endloop
  endfacet
  facet normal  0.000000e+000 -9.999999e-001  -0.000000e+000
    outer loop
      vertex -3.436932e+000 -1.500000e+000  0.000000e+000
      vertex -2.000000e+001 -1.500000e+000 -9.500000e-001
      vertex -3.436932e+000 -1.500000e+000 -9.500000e-001
    endloop
  endfacet
  facet normal  0.000000e+000  0.000000e+000 -9.999999e-001
    outer loop
      vertex  2.000000e+001 -1.500000e+000 -9.500000e-001
      vertex  3.436932e+000 -1.500000e+000 -9.500000e-001
      vertex  2.000000e+001  1.500000e+000 -9.500000e-001
    endloop
  endfacet
  facet normal  0.000000e+000  0.000000e+000 -1.000000e+000
    outer loop
      vertex  2.000000e+001  1.500000e+000 -9.500000e-001
      vertex  3.436932e+000 -1.500000e+000 -9.500000e-001
      vertex  3.750000e+000  0.000000e+000 -9.500000e-001
    endloop
  endfacet
  facet normal  0.000000e+000  0.000000e+000 -9.999999e-001
    outer loop
      vertex  2.000000e+001  1.500000e+000 -9.500000e-001
      vertex  3.750000e+000  0.000000e+000 -9.500000e-001
      vertex  3.436932e+000  1.500000e+000 -9.500000e-001
    endloop
  endfacet
  facet normal  -0.000000e+000  0.000000e+000 -9.999999e-001
    outer loop
      vertex -2.000000e+001  1.500000e+000 -9.500000e-001
      vertex -3.436932e+000  1.500000e+000 -9.500000e-001
      vertex -2.000000e+001 -1.500000e+000 -9.500000e-001
    endloop
  endfacet
  facet normal  0.000000e+000  0.000000e+000 -1.000000e+000
    outer loop
      vertex -2.000000e+001 -1.500000e+000 -9.500000e-001
      vertex -3.436932e+000  1.500000e+000 -9.500000e-001
      vertex -3.750000e+000  2.124562e-015 -9.500000e-001
    endloop
  endfacet
  facet normal  0.000000e+000  -0.000000e+000 -9.999999e-001
    outer loop
      vertex -2.000000e+001 -1.500000e+000 -9.500000e-001
      vertex -3.750000e+000  2.124562e-015 -9.500000e-001
      vertex -3.436932e+000 -1.500000e+000 -9.500000e-001
    endloop
  endfacet
  facet normal  0.000000e+000  9.999999e-001  0.000000e+000
    outer loop
      vertex  3.436932e+000  1.500000e+000 -9.500000e-001
      vertex  3.436932e+000  1.500000e+000  0.000000e+000
      vertex  2.000000e+001  1.500000e+000 -9.500000e-001
    endloop
  endfacet
  facet normal  0.000000e+000  9.999999e-001  -0.000000e+000
    outer loop
      vertex  2.000000e+001  1.500000e+000 -9.500000e-001
      vertex  3.436932e+000  1.500000e+000  0.000000e+000
      vertex  2.000000e+001  1.500000e+000  0.000000e+000
    endloop
  endfacet
  facet normal  0.000000e+000  9.999999e-001  0.000000e+000
    outer loop
      vertex -2.000000e+001  1.500000e+000 -9.500000e-001
      vertex -2.000000e+001  1.500000e+000  0.000000e+000
      vertex -3.436932e+000  1.500000e+000 -9.500000e-001
    endloop
  endfacet
  facet normal  0.000000e+000  9.999999e-001  -0.000000e+000
    outer loop
      vertex -3.436932e+000  1.500000e+000 -9.500000e-001
      vertex -2.000000e+001  1.500000e+000  0.000000e+000
      vertex -3.436932e+000  1.500000e+000  0.000000e+000
    endloop
  endfacet
  facet normal  -0.000000e+000  0.000000e+000 -1.000000e+000
    outer loop
      vertex -2.000000e+001  5.000000e+000  0.000000e+000
      vertex -4.027079e-015  3.750000e+000  0.000000e+000
      vertex -2.053960e+000  3.137475e+000  0.000000e+000
    endloop
  endfacet
  facet normal  -0.000000e+000  0.000000e+000 -9.999999e-001
    outer loop
      vertex -2.000000e+001  5.000000e+000  0.000000e+000
      vertex -2.053960e+000  3.137475e+000  0.000000e+000
      vertex -3.436932e+000  1.500000e+000  0.000000e+000
    endloop
  endfacet
  facet normal  0.000000e+000  0.000000e+000 -1.000000e+000
    outer loop
      vertex -2.000000e+001  5.000000e+000  0.000000e+000
      vertex -3.436932e+000  1.500000e+000  0.000000e+000
      vertex -2.000000e+001  1.500000e+000  0.000000e+000
    endloop
  endfacet
  facet normal  0.000000e+000  0.000000e+000 -1.000000e+000
    outer loop
      vertex  2.000000e+001  5.000000e+000  0.000000e+000
      vertex  2.000000e+001  1.500000e+000  0.000000e+000
      vertex  3.436932e+000  1.500000e+000  0.000000e+000
    endloop
  endfacet
  facet normal  0.000000e+000  0.000000e+000 -1.000000e+000
    outer loop
      vertex  2.000000e+001  5.000000e+000  0.000000e+000
      vertex  3.436932e+000  1.500000e+000  0.000000e+000
      vertex  2.053960e+000  3.137475e+000  0.000000e+000
    endloop
  endfacet
  facet normal  0.000000e+000  0.000000e+000 -1.000000e+000
    outer loop
      vertex  2.000000e+001  5.000000e+000  0.000000e+000
      vertex  2.053960e+000  3.137475e+000  0.000000e+000
      vertex -4.027079e-015  3.750000e+000  0.000000e+000
    endloop
  endfacet
  facet normal  0.000000e+000  0.000000e+000 -1.000000e+000
    outer loop
      vertex  2.000000e+001  5.000000e+000  0.000000e+000
      vertex -4.027079e-015  3.750000e+000  0.000000e+000
      vertex -2.000000e+001  5.000000e+000  0.000000e+000
    endloop
  endfacet
  facet normal  0.000000e+000  0.000000e+000  9.999999e-001
    outer loop
      vertex -2.000000e+001 -5.000000e+000  9.000000e+000
      vertex -3.033814e+000 -2.204195e+000  9.000000e+000
      vertex -3.750000e+000  2.124562e-015  9.000000e+000
    endloop
  endfacet
  facet normal  0.000000e+000  0.000000e+000  1.000000e+000
    outer loop
      vertex -2.000000e+001 -5.000000e+000  9.000000e+000
      vertex -1.158814e+000 -3.566462e+000  9.000000e+000
      vertex -3.033814e+000 -2.204195e+000  9.000000e+000
    endloop
  endfacet
  facet normal  0.000000e+000  0.000000e+000  9.999999e-001
    outer loop
      vertex  2.000000e+001 -5.000000e+000  9.000000e+000
      vertex  3.750000e+000  0.000000e+000  9.000000e+000
      vertex  3.033814e+000 -2.204195e+000  9.000000e+000
    endloop
  endfacet
  facet normal  0.000000e+000  0.000000e+000  1.000000e+000
    outer loop
      vertex  2.000000e+001 -5.000000e+000  9.000000e+000
      vertex  3.033814e+000 -2.204195e+000  9.000000e+000
      vertex  1.158814e+000 -3.566462e+000  9.000000e+000
    endloop
  endfacet
  facet normal  0.000000e+000  0.000000e+000  1.000000e+000
    outer loop
      vertex  2.000000e+001 -5.000000e+000  9.000000e+000
      vertex  1.158814e+000 -3.566462e+000  9.000000e+000
      vertex -1.158814e+000 -3.566462e+000  9.000000e+000
    endloop
  endfacet
  facet normal  0.000000e+000  0.000000e+000  1.000000e+000
    outer loop
      vertex  2.000000e+001 -5.000000e+000  9.000000e+000
      vertex -1.158814e+000 -3.566462e+000  9.000000e+000
      vertex -2.000000e+001 -5.000000e+000  9.000000e+000
    endloop
  endfacet
  facet normal  0.000000e+000  0.000000e+000  1.000000e+000
    outer loop
      vertex -2.000000e+001  5.000000e+000  9.000000e+000
      vertex -2.000000e+001 -5.000000e+000  9.000000e+000
      vertex -3.750000e+000  2.124562e-015  9.000000e+000
    endloop
  endfacet
  facet normal  0.000000e+000  -0.000000e+000  9.999999e-001
    outer loop
      vertex -2.000000e+001  5.000000e+000  9.000000e+000
      vertex -3.750000e+000  2.124562e-015  9.000000e+000
      vertex -3.033814e+000  2.204195e+000  9.000000e+000
    endloop
  endfacet
  facet normal  0.000000e+000  -0.000000e+000  1.000000e+000
    outer loop
      vertex -2.000000e+001  5.000000e+000  9.000000e+000
      vertex -3.033814e+000  2.204195e+000  9.000000e+000
      vertex -1.158814e+000  3.566462e+000  9.000000e+000
    endloop
  endfacet
  facet normal  0.000000e+000  -0.000000e+000  1.000000e+000
    outer loop
      vertex -2.000000e+001  5.000000e+000  9.000000e+000
      vertex -1.158814e+000  3.566462e+000  9.000000e+000
      vertex  1.158814e+000  3.566462e+000  9.000000e+000
    endloop
  endfacet
  facet normal  0.000000e+000  -0.000000e+000  1.000000e+000
    outer loop
      vertex -2.000000e+001  5.000000e+000  9.000000e+000
      vertex  1.158814e+000  3.566462e+000  9.000000e+000
      vertex  2.000000e+001  5.000000e+000  9.000000e+000
    endloop
  endfacet
  facet normal  -0.000000e+000  0.000000e+000  1.000000e+000
    outer loop
      vertex  2.000000e+001  5.000000e+000  9.000000e+000
      vertex  1.158814e+000  3.566462e+000  9.000000e+000
      vertex  3.033814e+000  2.204195e+000  9.000000e+000
    endloop
  endfacet
  facet normal  -0.000000e+000  0.000000e+000  9.999999e-001
    outer loop
      vertex  2.000000e+001  5.000000e+000  9.000000e+000
      vertex  3.033814e+000  2.204195e+000  9.000000e+000
      vertex  3.750000e+000  0.000000e+000  9.000000e+000
    endloop
  endfacet
  facet normal  -0.000000e+000  0.000000e+000  1.000000e+000
    outer loop
      vertex  2.000000e+001  5.000000e+000  9.000000e+000
      vertex  3.750000e+000  0.000000e+000  9.000000e+000
      vertex  2.000000e+001 -5.000000e+000  9.000000e+000
    endloop
  endfacet
  facet normal  9.789063e-001 -2.043096e-001  0.000000e+000
    outer loop
      vertex -3.436932e+000  1.500000e+000 -9.500000e-001
      vertex -3.436932e+000  1.500000e+000  0.000000e+000
      vertex -3.750000e+000  2.124562e-015 -9.500000e-001
    endloop
  endfacet
  facet normal  5.876689e-001 -8.088568e-001 -1.989559e-002
    outer loop
      vertex -2.053960e+000  3.137475e+000  0.000000e+000
      vertex -1.158814e+000  3.566462e+000  9.000000e+000
      vertex -3.033814e+000  2.204195e+000  9.000000e+000
    endloop
  endfacet
  facet normal  2.857372e-001 -9.581528e-001  1.725097e-002
    outer loop
      vertex -1.158814e+000  3.566462e+000  9.000000e+000
      vertex -2.053960e+000  3.137475e+000  0.000000e+000
      vertex -4.027079e-015  3.750000e+000  0.000000e+000
    endloop
  endfacet
  facet normal  -0.000000e+000 -9.997921e-001 -2.038887e-002
    outer loop
      vertex -4.027079e-015  3.750000e+000  0.000000e+000
      vertex  1.158814e+000  3.566462e+000  9.000000e+000
      vertex -1.158814e+000  3.566462e+000  9.000000e+000
    endloop
  endfacet
  facet normal -2.857372e-001 -9.581528e-001  1.725097e-002
    outer loop
      vertex  2.053960e+000  3.137475e+000  0.000000e+000
      vertex  1.158814e+000  3.566462e+000  9.000000e+000
      vertex -4.027079e-015  3.750000e+000  0.000000e+000
    endloop
  endfacet
  facet normal -5.876689e-001 -8.088568e-001 -1.989559e-002
    outer loop
      vertex  3.033814e+000  2.204195e+000  9.000000e+000
      vertex  1.158814e+000  3.566462e+000  9.000000e+000
      vertex  2.053960e+000  3.137475e+000  0.000000e+000
    endloop
  endfacet
  facet normal -9.789063e-001 -2.043096e-001  0.000000e+000
    outer loop
      vertex  3.436932e+000  1.500000e+000  0.000000e+000
      vertex  3.436932e+000  1.500000e+000 -9.500000e-001
      vertex  3.750000e+000  0.000000e+000 -9.500000e-001
    endloop
  endfacet
  facet normal -9.789064e-001 -2.043096e-001  0.000000e+000
    outer loop
      vertex  3.436932e+000  1.500000e+000  0.000000e+000
      vertex  3.750000e+000  0.000000e+000 -9.500000e-001
      vertex  3.750000e+000  0.000000e+000  9.000000e+000
    endloop
  endfacet
  facet normal -9.508952e-001 -3.089646e-001 -1.841687e-002
    outer loop
      vertex  3.436932e+000  1.500000e+000  0.000000e+000
      vertex  3.750000e+000  0.000000e+000  9.000000e+000
      vertex  3.033814e+000  2.204195e+000  9.000000e+000
    endloop
  endfacet
  facet normal -7.638793e-001 -6.451542e-001  1.626451e-002
    outer loop
      vertex  3.436932e+000  1.500000e+000  0.000000e+000
      vertex  3.033814e+000  2.204195e+000  9.000000e+000
      vertex  2.053960e+000  3.137475e+000  0.000000e+000
    endloop
  endfacet
  facet normal  7.638793e-001 -6.451542e-001  1.626451e-002
    outer loop
      vertex -2.053960e+000  3.137475e+000  0.000000e+000
      vertex -3.033814e+000  2.204195e+000  9.000000e+000
      vertex -3.436932e+000  1.500000e+000  0.000000e+000
    endloop
  endfacet
  facet normal  9.508952e-001 -3.089646e-001 -1.841687e-002
    outer loop
      vertex -3.436932e+000  1.500000e+000  0.000000e+000
      vertex -3.033814e+000  2.204195e+000  9.000000e+000
      vertex -3.750000e+000  2.124562e-015  9.000000e+000
    endloop
  endfacet
  facet normal  9.789064e-001 -2.043096e-001  0.000000e+000
    outer loop
      vertex -3.436932e+000  1.500000e+000  0.000000e+000
      vertex -3.750000e+000  2.124562e-015  9.000000e+000
      vertex -3.750000e+000  2.124562e-015 -9.500000e-001
    endloop
  endfacet
  facet normal -9.789063e-001  2.043096e-001  0.000000e+000
    outer loop
      vertex  3.436932e+000 -1.500000e+000 -9.500000e-001
      vertex  3.436932e+000 -1.500000e+000  0.000000e+000
      vertex  3.750000e+000  0.000000e+000 -9.500000e-001
    endloop
  endfacet
  facet normal -5.876689e-001  8.088568e-001 -1.989559e-002
    outer loop
      vertex  2.053960e+000 -3.137475e+000  0.000000e+000
      vertex  1.158814e+000 -3.566462e+000  9.000000e+000
      vertex  3.033814e+000 -2.204195e+000  9.000000e+000
    endloop
  endfacet
  facet normal -2.857372e-001  9.581528e-001  1.725097e-002
    outer loop
      vertex  1.158814e+000 -3.566462e+000  9.000000e+000
      vertex  2.053960e+000 -3.137475e+000  0.000000e+000
      vertex  1.347406e-015 -3.750000e+000  0.000000e+000
    endloop
  endfacet
  facet normal  0.000000e+000  9.997921e-001 -2.038887e-002
    outer loop
      vertex  1.347406e-015 -3.750000e+000  0.000000e+000
      vertex -1.158814e+000 -3.566462e+000  9.000000e+000
      vertex  1.158814e+000 -3.566462e+000  9.000000e+000
    endloop
  endfacet
  facet normal  2.857372e-001  9.581528e-001  1.725097e-002
    outer loop
      vertex -2.053960e+000 -3.137475e+000  0.000000e+000
      vertex -1.158814e+000 -3.566462e+000  9.000000e+000
      vertex  1.347406e-015 -3.750000e+000  0.000000e+000
    endloop
  endfacet
  facet normal  5.876689e-001  8.088568e-001 -1.989559e-002
    outer loop
      vertex -3.033814e+000 -2.204195e+000  9.000000e+000
      vertex -1.158814e+000 -3.566462e+000  9.000000e+000
      vertex -2.053960e+000 -3.137475e+000  0.000000e+000
    endloop
  endfacet
  facet normal  9.789063e-001  2.043096e-001  -0.000000e+000
    outer loop
      vertex -3.436932e+000 -1.500000e+000  0.000000e+000
      vertex -3.436932e+000 -1.500000e+000 -9.500000e-001
      vertex -3.750000e+000  2.124562e-015 -9.500000e-001
    endloop
  endfacet
  facet normal  9.789064e-001  2.043096e-001  -0.000000e+000
    outer loop
      vertex -3.436932e+000 -1.500000e+000  0.000000e+000
      vertex -3.750000e+000  2.124562e-015 -9.500000e-001
      vertex -3.750000e+000  2.124562e-015  9.000000e+000
    endloop
  endfacet
  facet normal  9.508952e-001  3.089646e-001 -1.841687e-002
    outer loop
      vertex -3.436932e+000 -1.500000e+000  0.000000e+000
      vertex -3.750000e+000  2.124562e-015  9.000000e+000
      vertex -3.033814e+000 -2.204195e+000  9.000000e+000
    endloop
  endfacet
  facet normal  7.638793e-001  6.451542e-001  1.626451e-002
    outer loop
      vertex -3.436932e+000 -1.500000e+000  0.000000e+000
      vertex -3.033814e+000 -2.204195e+000  9.000000e+000
      vertex -2.053960e+000 -3.137475e+000  0.000000e+000
    endloop
  endfacet
  facet normal -7.638793e-001  6.451542e-001  1.626451e-002
    outer loop
      vertex  2.053960e+000 -3.137475e+000  0.000000e+000
      vertex  3.033814e+000 -2.204195e+000  9.000000e+000
      vertex  3.436932e+000 -1.500000e+000  0.000000e+000
    endloop
  endfacet
  facet normal -9.508952e-001  3.089646e-001 -1.841687e-002
    outer loop
      vertex  3.436932e+000 -1.500000e+000  0.000000e+000
      vertex  3.033814e+000 -2.204195e+000  9.000000e+000
      vertex  3.750000e+000  0.000000e+000  9.000000e+000
    endloop
  endfacet
  facet normal -9.789064e-001  2.043096e-001  0.000000e+000
    outer loop
      vertex  3.436932e+000 -1.500000e+000  0.000000e+000
      vertex  3.750000e+000  0.000000e+000  9.000000e+000
      vertex  3.750000e+000  0.000000e+000 -9.500000e-001
    endloop
  endfacet
  facet normal  1.000000e+000  -0.000000e+000  0.000000e+000
    outer loop
      vertex  2.000000e+001  5.000000e+000  9.000000e+000
      vertex  2.000000e+001 -5.000000e+000  9.000000e+000
      vertex  2.000000e+001 -5.000000e+000  0.000000e+000
    endloop
  endfacet
  facet normal  1.000000e+000  0.000000e+000  0.000000e+000
    outer loop
      vertex  2.000000e+001  5.000000e+000  9.000000e+000
      vertex  2.000000e+001 -5.000000e+000  0.000000e+000
      vertex  2.000000e+001 -1.500000e+000  0.000000e+000
    endloop
  endfacet
  facet normal  1.000000e+000  0.000000e+000  0.000000e+000
    outer loop
      vertex  2.000000e+001  5.000000e+000  9.000000e+000
      vertex  2.000000e+001 -1.500000e+000  0.000000e+000
      vertex  2.000000e+001  1.500000e+000  0.000000e+000
    endloop
  endfacet
  facet normal  1.000000e+000  0.000000e+000  0.000000e+000
    outer loop
      vertex  2.000000e+001  5.000000e+000  9.000000e+000
      vertex  2.000000e+001  1.500000e+000  0.000000e+000
      vertex  2.000000e+001  5.000000e+000  0.000000e+000
    endloop
  endfacet
  facet normal  1.000000e+000  0.000000e+000  0.000000e+000
    outer loop
      vertex  2.000000e+001 -1.500000e+000 -9.500000e-001
      vertex  2.000000e+001  1.500000e+000 -9.500000e-001
      vertex  2.000000e+001 -1.500000e+000  0.000000e+000
    endloop
  endfacet
  facet normal  1.000000e+000  -0.000000e+000  0.000000e+000
    outer loop
      vertex  2.000000e+001 -1.500000e+000  0.000000e+000
      vertex  2.000000e+001  1.500000e+000 -9.500000e-001
      vertex  2.000000e+001  1.500000e+000  0.000000e+000
    endloop
  endfacet
  facet normal -1.000000e+000  0.000000e+000  0.000000e+000
    outer loop
      vertex -2.000000e+001  5.000000e+000  9.000000e+000
      vertex -2.000000e+001  5.000000e+000  0.000000e+000
      vertex -2.000000e+001  1.500000e+000  0.000000e+000
    endloop
  endfacet
  facet normal -1.000000e+000  0.000000e+000  0.000000e+000
    outer loop
      vertex -2.000000e+001  5.000000e+000  9.000000e+000
      vertex -2.000000e+001  1.500000e+000  0.000000e+000
      vertex -2.000000e+001 -1.500000e+000  0.000000e+000
    endloop
  endfacet
  facet normal -1.000000e+000  0.000000e+000  0.000000e+000
    outer loop
      vertex -2.000000e+001  5.000000e+000  9.000000e+000
      vertex -2.000000e+001 -1.500000e+000  0.000000e+000
      vertex -2.000000e+001 -5.000000e+000  0.000000e+000
    endloop
  endfacet
  facet normal -1.000000e+000  0.000000e+000  0.000000e+000
    outer loop
      vertex -2.000000e+001  5.000000e+000  9.000000e+000
      vertex -2.000000e+001 -5.000000e+000  0.000000e+000
      vertex -2.000000e+001 -5.000000e+000  9.000000e+000
    endloop
  endfacet
  facet normal -1.000000e+000  0.000000e+000  0.000000e+000
    outer loop
      vertex -2.000000e+001 -1.500000e+000 -9.500000e-001
      vertex -2.000000e+001 -1.500000e+000  0.000000e+000
      vertex -2.000000e+001  1.500000e+000 -9.500000e-001
    endloop
  endfacet
  facet normal -1.000000e+000  0.000000e+000  0.000000e+000
    outer loop
      vertex -2.000000e+001  1.500000e+000 -9.500000e-001
      vertex -2.000000e+001 -1.500000e+000  0.000000e+000
      vertex -2.000000e+001  1.500000e+000  0.000000e+000
    endloop
  endfacet
  facet normal  0.000000e+000 -1.000000e+000  0.000000e+000
    outer loop
      vertex -2.000000e+001 -5.000000e+000  9.000000e+000
      vertex -2.000000e+001 -5.000000e+000  0.000000e+000
      vertex  2.000000e+001 -5.000000e+000  9.000000e+000
    endloop
  endfacet
  facet normal  0.000000e+000 -1.000000e+000  -0.000000e+000
    outer loop
      vertex  2.000000e+001 -5.000000e+000  9.000000e+000
      vertex -2.000000e+001 -5.000000e+000  0.000000e+000
      vertex  2.000000e+001 -5.000000e+000  0.000000e+000
    endloop
  endfacet
  facet normal  0.000000e+000  1.000000e+000  0.000000e+000
    outer loop
      vertex -2.000000e+001  5.000000e+000  0.000000e+000
      vertex -2.000000e+001  5.000000e+000  9.000000e+000
      vertex  2.000000e+001  5.000000e+000  0.000000e+000
    endloop
  endfacet
  facet normal  0.000000e+000  1.000000e+000  -0.000000e+000
    outer loop
      vertex  2.000000e+001  5.000000e+000  0.000000e+000
      vertex -2.000000e+001  5.000000e+000  9.000000e+000
      vertex  2.000000e+001  5.000000e+000  9.000000e+000
    endloop
  endfacet
endsolid CATIA STL
