solid CATIA STL
  facet normal  0.000000e+000  0.000000e+000  1.000000e+000
    outer loop
      vertex -2.000000e+001  5.000000e+000  5.000000e+000
      vertex -2.000000e+001  1.600000e+000  5.000000e+000
      vertex -3.391534e+000  1.600000e+000  5.000000e+000
    endloop
  endfacet
  facet normal  0.000000e+000  -0.000000e+000  1.000000e+000
    outer loop
      vertex -2.000000e+001  5.000000e+000  5.000000e+000
      vertex -3.391534e+000  1.600000e+000  5.000000e+000
      vertex -2.007797e+000  3.167215e+000  5.000000e+000
    endloop
  endfacet
  facet normal  0.000000e+000  -0.000000e+000  1.000000e+000
    outer loop
      vertex -2.000000e+001  5.000000e+000  5.000000e+000
      vertex -2.007797e+000  3.167215e+000  5.000000e+000
      vertex -1.435721e-015  3.750000e+000  5.000000e+000
    endloop
  endfacet
  facet normal  0.000000e+000  -0.000000e+000  1.000000e+000
    outer loop
      vertex -2.000000e+001  5.000000e+000  5.000000e+000
      vertex -1.435721e-015  3.750000e+000  5.000000e+000
      vertex  2.000000e+001  5.000000e+000  5.000000e+000
    endloop
  endfacet
  facet normal  0.000000e+000  0.000000e+000  1.000000e+000
    outer loop
      vertex  2.000000e+001  1.600000e+000  5.000000e+000
      vertex  2.000000e+001  5.000000e+000  5.000000e+000
      vertex -1.435721e-015  3.750000e+000  5.000000e+000
    endloop
  endfacet
  facet normal  0.000000e+000  0.000000e+000  1.000000e+000
    outer loop
      vertex  2.000000e+001  1.600000e+000  5.000000e+000
      vertex -1.435721e-015  3.750000e+000  5.000000e+000
      vertex  2.007797e+000  3.167215e+000  5.000000e+000
    endloop
  endfacet
  facet normal  0.000000e+000  0.000000e+000  1.000000e+000
    outer loop
      vertex  2.000000e+001  1.600000e+000  5.000000e+000
      vertex  2.007797e+000  3.167215e+000  5.000000e+000
      vertex  3.391534e+000  1.600000e+000  5.000000e+000
    endloop
  endfacet
  facet normal  0.000000e+000 -1.000000e+000  0.000000e+000
    outer loop
      vertex  3.391534e+000  1.600000e+000  4.000000e+000
      vertex  2.000000e+001  1.600000e+000  4.000000e+000
      vertex  3.391534e+000  1.600000e+000  5.000000e+000
    endloop
  endfacet
  facet normal  0.000000e+000 -1.000000e+000  0.000000e+000
    outer loop
      vertex  3.391534e+000  1.600000e+000  5.000000e+000
      vertex  2.000000e+001  1.600000e+000  4.000000e+000
      vertex  2.000000e+001  1.600000e+000  5.000000e+000
    endloop
  endfacet
  facet normal  0.000000e+000 -1.000000e+000  0.000000e+000
    outer loop
      vertex -2.000000e+001  1.600000e+000  4.000000e+000
      vertex -3.391534e+000  1.600000e+000  4.000000e+000
      vertex -2.000000e+001  1.600000e+000  5.000000e+000
    endloop
  endfacet
  facet normal  0.000000e+000 -1.000000e+000  0.000000e+000
    outer loop
      vertex -2.000000e+001  1.600000e+000  5.000000e+000
      vertex -3.391534e+000  1.600000e+000  4.000000e+000
      vertex -3.391534e+000  1.600000e+000  5.000000e+000
    endloop
  endfacet
  facet normal  0.000000e+000  -0.000000e+000  1.000000e+000
    outer loop
      vertex  3.391534e+000  1.600000e+000  4.000000e+000
      vertex  3.750000e+000  0.000000e+000  4.000000e+000
      vertex  2.000000e+001  1.600000e+000  4.000000e+000
    endloop
  endfacet
  facet normal  0.000000e+000  0.000000e+000  1.000000e+000
    outer loop
      vertex  2.000000e+001  1.600000e+000  4.000000e+000
      vertex  3.750000e+000  0.000000e+000  4.000000e+000
      vertex  3.391534e+000 -1.600000e+000  4.000000e+000
    endloop
  endfacet
  facet normal  0.000000e+000  0.000000e+000  1.000000e+000
    outer loop
      vertex  2.000000e+001  1.600000e+000  4.000000e+000
      vertex  3.391534e+000 -1.600000e+000  4.000000e+000
      vertex  2.000000e+001 -1.600000e+000  4.000000e+000
    endloop
  endfacet
  facet normal  0.000000e+000  0.000000e+000  1.000000e+000
    outer loop
      vertex -3.391534e+000 -1.600000e+000  4.000000e+000
      vertex -3.750000e+000  2.124562e-015  4.000000e+000
      vertex -2.000000e+001 -1.600000e+000  4.000000e+000
    endloop
  endfacet
  facet normal  0.000000e+000  0.000000e+000  1.000000e+000
    outer loop
      vertex -2.000000e+001 -1.600000e+000  4.000000e+000
      vertex -3.750000e+000  2.124562e-015  4.000000e+000
      vertex -3.391534e+000  1.600000e+000  4.000000e+000
    endloop
  endfacet
  facet normal  0.000000e+000  0.000000e+000  1.000000e+000
    outer loop
      vertex -2.000000e+001 -1.600000e+000  4.000000e+000
      vertex -3.391534e+000  1.600000e+000  4.000000e+000
      vertex -2.000000e+001  1.600000e+000  4.000000e+000
    endloop
  endfacet
  facet normal  0.000000e+000  1.000000e+000  0.000000e+000
    outer loop
      vertex  3.391534e+000 -1.600000e+000  5.000000e+000
      vertex  2.000000e+001 -1.600000e+000  5.000000e+000
      vertex  3.391534e+000 -1.600000e+000  4.000000e+000
    endloop
  endfacet
  facet normal  0.000000e+000  1.000000e+000  0.000000e+000
    outer loop
      vertex  3.391534e+000 -1.600000e+000  4.000000e+000
      vertex  2.000000e+001 -1.600000e+000  5.000000e+000
      vertex  2.000000e+001 -1.600000e+000  4.000000e+000
    endloop
  endfacet
  facet normal  0.000000e+000  1.000000e+000  0.000000e+000
    outer loop
      vertex -2.000000e+001 -1.600000e+000  5.000000e+000
      vertex -3.391534e+000 -1.600000e+000  5.000000e+000
      vertex -2.000000e+001 -1.600000e+000  4.000000e+000
    endloop
  endfacet
  facet normal  0.000000e+000  1.000000e+000  0.000000e+000
    outer loop
      vertex -2.000000e+001 -1.600000e+000  4.000000e+000
      vertex -3.391534e+000 -1.600000e+000  5.000000e+000
      vertex -3.391534e+000 -1.600000e+000  4.000000e+000
    endloop
  endfacet
  facet normal  0.000000e+000  0.000000e+000  1.000000e+000
    outer loop
      vertex -2.000000e+001 -5.000000e+000  5.000000e+000
      vertex  2.641828e-015 -3.750000e+000  5.000000e+000
      vertex -2.007797e+000 -3.167215e+000  5.000000e+000
    endloop
  endfacet
  facet normal  0.000000e+000  0.000000e+000  9.999999e-001
    outer loop
      vertex -2.000000e+001 -5.000000e+000  5.000000e+000
      vertex -2.007797e+000 -3.167215e+000  5.000000e+000
      vertex -3.391534e+000 -1.600000e+000  5.000000e+000
    endloop
  endfacet
  facet normal  0.000000e+000  0.000000e+000  1.000000e+000
    outer loop
      vertex -2.000000e+001 -5.000000e+000  5.000000e+000
      vertex -3.391534e+000 -1.600000e+000  5.000000e+000
      vertex -2.000000e+001 -1.600000e+000  5.000000e+000
    endloop
  endfacet
  facet normal  0.000000e+000  0.000000e+000  1.000000e+000
    outer loop
      vertex  2.000000e+001 -5.000000e+000  5.000000e+000
      vertex  2.000000e+001 -1.600000e+000  5.000000e+000
      vertex  3.391534e+000 -1.600000e+000  5.000000e+000
    endloop
  endfacet
  facet normal  0.000000e+000  0.000000e+000  1.000000e+000
    outer loop
      vertex  2.000000e+001 -5.000000e+000  5.000000e+000
      vertex  3.391534e+000 -1.600000e+000  5.000000e+000
      vertex  2.007797e+000 -3.167215e+000  5.000000e+000
    endloop
  endfacet
  facet normal  0.000000e+000  0.000000e+000  1.000000e+000
    outer loop
      vertex  2.000000e+001 -5.000000e+000  5.000000e+000
      vertex  2.007797e+000 -3.167215e+000  5.000000e+000
      vertex  2.641828e-015 -3.750000e+000  5.000000e+000
    endloop
  endfacet
  facet normal  0.000000e+000  0.000000e+000  1.000000e+000
    outer loop
      vertex  2.000000e+001 -5.000000e+000  5.000000e+000
      vertex  2.641828e-015 -3.750000e+000  5.000000e+000
      vertex -2.000000e+001 -5.000000e+000  5.000000e+000
    endloop
  endfacet
  facet normal  -0.000000e+000  0.000000e+000 -1.000000e+000
    outer loop
      vertex -2.000000e+001  1.000000e+001 -5.000000e+000
      vertex -3.033814e+000  2.204195e+000 -5.000000e+000
      vertex -3.750000e+000  2.124562e-015 -5.000000e+000
    endloop
  endfacet
  facet normal  -0.000000e+000  0.000000e+000 -1.000000e+000
    outer loop
      vertex -2.000000e+001  1.000000e+001 -5.000000e+000
      vertex -1.158814e+000  3.566462e+000 -5.000000e+000
      vertex -3.033814e+000  2.204195e+000 -5.000000e+000
    endloop
  endfacet
  facet normal  0.000000e+000  0.000000e+000 -1.000000e+000
    outer loop
      vertex  2.000000e+001  1.000000e+001 -5.000000e+000
      vertex  3.750000e+000  0.000000e+000 -5.000000e+000
      vertex  3.033814e+000  2.204195e+000 -5.000000e+000
    endloop
  endfacet
  facet normal  0.000000e+000  0.000000e+000 -1.000000e+000
    outer loop
      vertex  2.000000e+001  1.000000e+001 -5.000000e+000
      vertex  3.033814e+000  2.204195e+000 -5.000000e+000
      vertex  1.158814e+000  3.566462e+000 -5.000000e+000
    endloop
  endfacet
  facet normal  0.000000e+000  0.000000e+000 -1.000000e+000
    outer loop
      vertex  2.000000e+001  1.000000e+001 -5.000000e+000
      vertex  1.158814e+000  3.566462e+000 -5.000000e+000
      vertex -1.158814e+000  3.566462e+000 -5.000000e+000
    endloop
  endfacet
  facet normal  0.000000e+000  0.000000e+000 -1.000000e+000
    outer loop
      vertex  2.000000e+001  1.000000e+001 -5.000000e+000
      vertex -1.158814e+000  3.566462e+000 -5.000000e+000
      vertex -2.000000e+001  1.000000e+001 -5.000000e+000
    endloop
  endfacet
  facet normal  0.000000e+000  0.000000e+000 -1.000000e+000
    outer loop
      vertex -2.000000e+001 -1.000000e+001 -5.000000e+000
      vertex -2.000000e+001  1.000000e+001 -5.000000e+000
      vertex -3.750000e+000  2.124562e-015 -5.000000e+000
    endloop
  endfacet
  facet normal  0.000000e+000  -0.000000e+000 -1.000000e+000
    outer loop
      vertex -2.000000e+001 -1.000000e+001 -5.000000e+000
      vertex -3.750000e+000  2.124562e-015 -5.000000e+000
      vertex -3.033814e+000 -2.204195e+000 -5.000000e+000
    endloop
  endfacet
  facet normal  0.000000e+000  -0.000000e+000 -1.000000e+000
    outer loop
      vertex -2.000000e+001 -1.000000e+001 -5.000000e+000
      vertex -3.033814e+000 -2.204195e+000 -5.000000e+000
      vertex -1.158814e+000 -3.566462e+000 -5.000000e+000
    endloop
  endfacet
  facet normal  0.000000e+000  -0.000000e+000 -1.000000e+000
    outer loop
      vertex -2.000000e+001 -1.000000e+001 -5.000000e+000
      vertex -1.158814e+000 -3.566462e+000 -5.000000e+000
      vertex  1.158814e+000 -3.566462e+000 -5.000000e+000
    endloop
  endfacet
  facet normal  0.000000e+000  -0.000000e+000 -1.000000e+000
    outer loop
      vertex -2.000000e+001 -1.000000e+001 -5.000000e+000
      vertex  1.158814e+000 -3.566462e+000 -5.000000e+000
      vertex  2.000000e+001 -1.000000e+001 -5.000000e+000
    endloop
  endfacet
  facet normal  0.000000e+000  0.000000e+000 -1.000000e+000
    outer loop
      vertex  2.000000e+001 -1.000000e+001 -5.000000e+000
      vertex  1.158814e+000 -3.566462e+000 -5.000000e+000
      vertex  3.033814e+000 -2.204195e+000 -5.000000e+000
    endloop
  endfacet
  facet normal  0.000000e+000  0.000000e+000 -1.000000e+000
    outer loop
      vertex  2.000000e+001 -1.000000e+001 -5.000000e+000
      vertex  3.033814e+000 -2.204195e+000 -5.000000e+000
      vertex  3.750000e+000  0.000000e+000 -5.000000e+000
    endloop
  endfacet
  facet normal  0.000000e+000  0.000000e+000 -1.000000e+000
    outer loop
      vertex  2.000000e+001 -1.000000e+001 -5.000000e+000
      vertex  3.750000e+000  0.000000e+000 -5.000000e+000
      vertex  2.000000e+001  1.000000e+001 -5.000000e+000
    endloop
  endfacet
  facet normal  5.876942e-001 -8.088917e-001  1.759950e-002
    outer loop
      vertex -1.158814e+000  3.566462e+000 -5.000000e+000
      vertex -2.007797e+000  3.167215e+000  5.000000e+000
      vertex -3.033814e+000  2.204195e+000 -5.000000e+000
    endloop
  endfacet
  facet normal  2.787256e-001 -9.602587e-001 -1.467471e-002
    outer loop
      vertex -1.435721e-015  3.750000e+000  5.000000e+000
      vertex -2.007797e+000  3.167215e+000  5.000000e+000
      vertex -1.158814e+000  3.566462e+000 -5.000000e+000
    endloop
  endfacet
  facet normal  0.000000e+000 -9.998316e-001  1.835071e-002
    outer loop
      vertex  1.158814e+000  3.566462e+000 -5.000000e+000
      vertex -1.435721e-015  3.750000e+000  5.000000e+000
      vertex -1.158814e+000  3.566462e+000 -5.000000e+000
    endloop
  endfacet
  facet normal -2.787256e-001 -9.602587e-001 -1.467471e-002
    outer loop
      vertex  1.158814e+000  3.566462e+000 -5.000000e+000
      vertex  2.007797e+000  3.167215e+000  5.000000e+000
      vertex -1.435721e-015  3.750000e+000  5.000000e+000
    endloop
  endfacet
  facet normal -5.876942e-001 -8.088917e-001  1.759950e-002
    outer loop
      vertex  2.007797e+000  3.167215e+000  5.000000e+000
      vertex  1.158814e+000  3.566462e+000 -5.000000e+000
      vertex  3.033814e+000  2.204195e+000 -5.000000e+000
    endloop
  endfacet
  facet normal  9.510565e-001 -3.090170e-001  0.000000e+000
    outer loop
      vertex -3.750000e+000  2.124562e-015 -5.000000e+000
      vertex -3.033814e+000  2.204195e+000 -5.000000e+000
      vertex -3.750000e+000  2.124562e-015  4.000000e+000
    endloop
  endfacet
  facet normal  9.755262e-001 -2.185583e-001  2.410148e-002
    outer loop
      vertex -3.750000e+000  2.124562e-015  4.000000e+000
      vertex -3.033814e+000  2.204195e+000 -5.000000e+000
      vertex -3.391534e+000  1.600000e+000  4.000000e+000
    endloop
  endfacet
  facet normal  7.540021e-001 -6.567203e-001 -1.411838e-002
    outer loop
      vertex -3.033814e+000  2.204195e+000 -5.000000e+000
      vertex -2.007797e+000  3.167215e+000  5.000000e+000
      vertex -3.391534e+000  1.600000e+000  4.000000e+000
    endloop
  endfacet
  facet normal  7.496243e-001 -6.618636e-001  0.000000e+000
    outer loop
      vertex -3.391534e+000  1.600000e+000  4.000000e+000
      vertex -2.007797e+000  3.167215e+000  5.000000e+000
      vertex -3.391534e+000  1.600000e+000  5.000000e+000
    endloop
  endfacet
  facet normal -9.758097e-001 -2.186219e-001  0.000000e+000
    outer loop
      vertex  3.750000e+000  0.000000e+000  4.000000e+000
      vertex  3.391534e+000  1.600000e+000  4.000000e+000
      vertex  3.750000e+000  0.000000e+000 -5.000000e+000
    endloop
  endfacet
  facet normal -9.509181e-001 -3.089720e-001  1.705367e-002
    outer loop
      vertex  3.750000e+000  0.000000e+000 -5.000000e+000
      vertex  3.391534e+000  1.600000e+000  4.000000e+000
      vertex  3.033814e+000  2.204195e+000 -5.000000e+000
    endloop
  endfacet
  facet normal -8.604922e-001 -5.094635e-001  -0.000000e+000
    outer loop
      vertex  3.391534e+000  1.600000e+000  4.000000e+000
      vertex  3.391534e+000  1.600000e+000  5.000000e+000
      vertex  3.033814e+000  2.204195e+000 -5.000000e+000
    endloop
  endfacet
  facet normal -7.495592e-001 -6.618061e-001 -1.317275e-002
    outer loop
      vertex  3.033814e+000  2.204195e+000 -5.000000e+000
      vertex  3.391534e+000  1.600000e+000  5.000000e+000
      vertex  2.007797e+000  3.167215e+000  5.000000e+000
    endloop
  endfacet
  facet normal -5.876942e-001  8.088917e-001  1.759950e-002
    outer loop
      vertex  1.158814e+000 -3.566462e+000 -5.000000e+000
      vertex  2.007797e+000 -3.167215e+000  5.000000e+000
      vertex  3.033814e+000 -2.204195e+000 -5.000000e+000
    endloop
  endfacet
  facet normal -2.787256e-001  9.602587e-001 -1.467471e-002
    outer loop
      vertex  2.641828e-015 -3.750000e+000  5.000000e+000
      vertex  2.007797e+000 -3.167215e+000  5.000000e+000
      vertex  1.158814e+000 -3.566462e+000 -5.000000e+000
    endloop
  endfacet
  facet normal  0.000000e+000  9.998316e-001  1.835071e-002
    outer loop
      vertex -1.158814e+000 -3.566462e+000 -5.000000e+000
      vertex  2.641828e-015 -3.750000e+000  5.000000e+000
      vertex  1.158814e+000 -3.566462e+000 -5.000000e+000
    endloop
  endfacet
  facet normal  2.787256e-001  9.602587e-001 -1.467471e-002
    outer loop
      vertex -1.158814e+000 -3.566462e+000 -5.000000e+000
      vertex -2.007797e+000 -3.167215e+000  5.000000e+000
      vertex  2.641828e-015 -3.750000e+000  5.000000e+000
    endloop
  endfacet
  facet normal  5.876942e-001  8.088917e-001  1.759950e-002
    outer loop
      vertex -2.007797e+000 -3.167215e+000  5.000000e+000
      vertex -1.158814e+000 -3.566462e+000 -5.000000e+000
      vertex -3.033814e+000 -2.204195e+000 -5.000000e+000
    endloop
  endfacet
  facet normal -9.510565e-001  3.090170e-001  0.000000e+000
    outer loop
      vertex  3.750000e+000  0.000000e+000 -5.000000e+000
      vertex  3.033814e+000 -2.204195e+000 -5.000000e+000
      vertex  3.750000e+000  0.000000e+000  4.000000e+000
    endloop
  endfacet
  facet normal -9.755262e-001  2.185583e-001  2.410148e-002
    outer loop
      vertex  3.750000e+000  0.000000e+000  4.000000e+000
      vertex  3.033814e+000 -2.204195e+000 -5.000000e+000
      vertex  3.391534e+000 -1.600000e+000  4.000000e+000
    endloop
  endfacet
  facet normal -7.540021e-001  6.567203e-001 -1.411838e-002
    outer loop
      vertex  3.033814e+000 -2.204195e+000 -5.000000e+000
      vertex  2.007797e+000 -3.167215e+000  5.000000e+000
      vertex  3.391534e+000 -1.600000e+000  4.000000e+000
    endloop
  endfacet
  facet normal -7.496243e-001  6.618636e-001  0.000000e+000
    outer loop
      vertex  3.391534e+000 -1.600000e+000  4.000000e+000
      vertex  2.007797e+000 -3.167215e+000  5.000000e+000
      vertex  3.391534e+000 -1.600000e+000  5.000000e+000
    endloop
  endfacet
  facet normal  9.758097e-001  2.186219e-001  0.000000e+000
    outer loop
      vertex -3.750000e+000  2.124562e-015  4.000000e+000
      vertex -3.391534e+000 -1.600000e+000  4.000000e+000
      vertex -3.750000e+000  2.124562e-015 -5.000000e+000
    endloop
  endfacet
  facet normal  9.509181e-001  3.089720e-001  1.705367e-002
    outer loop
      vertex -3.750000e+000  2.124562e-015 -5.000000e+000
      vertex -3.391534e+000 -1.600000e+000  4.000000e+000
      vertex -3.033814e+000 -2.204195e+000 -5.000000e+000
    endloop
  endfacet
  facet normal  8.604922e-001  5.094635e-001  0.000000e+000
    outer loop
      vertex -3.391534e+000 -1.600000e+000  4.000000e+000
      vertex -3.391534e+000 -1.600000e+000  5.000000e+000
      vertex -3.033814e+000 -2.204195e+000 -5.000000e+000
    endloop
  endfacet
  facet normal  7.495592e-001  6.618061e-001 -1.317275e-002
    outer loop
      vertex -3.033814e+000 -2.204195e+000 -5.000000e+000
      vertex -3.391534e+000 -1.600000e+000  5.000000e+000
      vertex -2.007797e+000 -3.167215e+000  5.000000e+000
    endloop
  endfacet
  facet normal  1.000000e+000  0.000000e+000  -0.000000e+000
    outer loop
      vertex  2.000000e+001 -1.000000e+001 -5.000000e+000
      vertex  2.000000e+001  1.000000e+001 -5.000000e+000
      vertex  2.000000e+001  1.000000e+001 -1.776357e-015
    endloop
  endfacet
  facet normal  1.000000e+000  0.000000e+000  0.000000e+000
    outer loop
      vertex  2.000000e+001 -1.000000e+001 -5.000000e+000
      vertex  2.000000e+001  1.000000e+001 -1.776357e-015
      vertex  2.000000e+001  5.000000e+000  0.000000e+000
    endloop
  endfacet
  facet normal  1.000000e+000  0.000000e+000  0.000000e+000
    outer loop
      vertex  2.000000e+001 -1.000000e+001 -5.000000e+000
      vertex  2.000000e+001  5.000000e+000  0.000000e+000
      vertex  2.000000e+001 -5.000000e+000 -4.440892e-015
    endloop
  endfacet
  facet normal  1.000000e+000  0.000000e+000  0.000000e+000
    outer loop
      vertex  2.000000e+001 -1.000000e+001 -5.000000e+000
      vertex  2.000000e+001 -5.000000e+000 -4.440892e-015
      vertex  2.000000e+001 -1.000000e+001  0.000000e+000
    endloop
  endfacet
  facet normal  1.000000e+000  -0.000000e+000  0.000000e+000
    outer loop
      vertex  2.000000e+001  5.000000e+000  5.000000e+000
      vertex  2.000000e+001  1.600000e+000  5.000000e+000
      vertex  2.000000e+001  5.000000e+000  0.000000e+000
    endloop
  endfacet
  facet normal  9.999999e-001  0.000000e+000  0.000000e+000
    outer loop
      vertex  2.000000e+001  5.000000e+000  0.000000e+000
      vertex  2.000000e+001  1.600000e+000  5.000000e+000
      vertex  2.000000e+001  1.600000e+000  4.000000e+000
    endloop
  endfacet
  facet normal  1.000000e+000  0.000000e+000  0.000000e+000
    outer loop
      vertex  2.000000e+001  5.000000e+000  0.000000e+000
      vertex  2.000000e+001  1.600000e+000  4.000000e+000
      vertex  2.000000e+001 -5.000000e+000 -4.440892e-015
    endloop
  endfacet
  facet normal  1.000000e+000  0.000000e+000  0.000000e+000
    outer loop
      vertex  2.000000e+001 -5.000000e+000 -4.440892e-015
      vertex  2.000000e+001  1.600000e+000  4.000000e+000
      vertex  2.000000e+001 -1.600000e+000  4.000000e+000
    endloop
  endfacet
  facet normal  1.000000e+000  0.000000e+000  0.000000e+000
    outer loop
      vertex  2.000000e+001 -5.000000e+000 -4.440892e-015
      vertex  2.000000e+001 -1.600000e+000  4.000000e+000
      vertex  2.000000e+001 -5.000000e+000  5.000000e+000
    endloop
  endfacet
  facet normal  9.999999e-001  -0.000000e+000  0.000000e+000
    outer loop
      vertex  2.000000e+001 -5.000000e+000  5.000000e+000
      vertex  2.000000e+001 -1.600000e+000  4.000000e+000
      vertex  2.000000e+001 -1.600000e+000  5.000000e+000
    endloop
  endfacet
  facet normal -1.000000e+000  0.000000e+000  0.000000e+000
    outer loop
      vertex -2.000000e+001 -1.000000e+001 -5.000000e+000
      vertex -2.000000e+001 -1.000000e+001  0.000000e+000
      vertex -2.000000e+001 -5.000000e+000 -4.440892e-015
    endloop
  endfacet
  facet normal -1.000000e+000  0.000000e+000  -0.000000e+000
    outer loop
      vertex -2.000000e+001 -1.000000e+001 -5.000000e+000
      vertex -2.000000e+001 -5.000000e+000 -4.440892e-015
      vertex -2.000000e+001  5.000000e+000  0.000000e+000
    endloop
  endfacet
  facet normal -1.000000e+000  0.000000e+000  -0.000000e+000
    outer loop
      vertex -2.000000e+001 -1.000000e+001 -5.000000e+000
      vertex -2.000000e+001  5.000000e+000  0.000000e+000
      vertex -2.000000e+001  1.000000e+001 -1.776357e-015
    endloop
  endfacet
  facet normal -1.000000e+000  0.000000e+000  -0.000000e+000
    outer loop
      vertex -2.000000e+001 -1.000000e+001 -5.000000e+000
      vertex -2.000000e+001  1.000000e+001 -1.776357e-015
      vertex -2.000000e+001  1.000000e+001 -5.000000e+000
    endloop
  endfacet
  facet normal -1.000000e+000  0.000000e+000  0.000000e+000
    outer loop
      vertex -2.000000e+001  5.000000e+000  0.000000e+000
      vertex -2.000000e+001  1.600000e+000  5.000000e+000
      vertex -2.000000e+001  5.000000e+000  5.000000e+000
    endloop
  endfacet
  facet normal -9.999999e-001  0.000000e+000  0.000000e+000
    outer loop
      vertex -2.000000e+001  1.600000e+000  5.000000e+000
      vertex -2.000000e+001  5.000000e+000  0.000000e+000
      vertex -2.000000e+001  1.600000e+000  4.000000e+000
    endloop
  endfacet
  facet normal -1.000000e+000  0.000000e+000  -0.000000e+000
    outer loop
      vertex -2.000000e+001  1.600000e+000  4.000000e+000
      vertex -2.000000e+001  5.000000e+000  0.000000e+000
      vertex -2.000000e+001 -5.000000e+000 -4.440892e-015
    endloop
  endfacet
  facet normal -1.000000e+000  0.000000e+000  0.000000e+000
    outer loop
      vertex -2.000000e+001  1.600000e+000  4.000000e+000
      vertex -2.000000e+001 -5.000000e+000 -4.440892e-015
      vertex -2.000000e+001 -1.600000e+000  4.000000e+000
    endloop
  endfacet
  facet normal -1.000000e+000  -0.000000e+000  0.000000e+000
    outer loop
      vertex -2.000000e+001 -1.600000e+000  4.000000e+000
      vertex -2.000000e+001 -5.000000e+000 -4.440892e-015
      vertex -2.000000e+001 -5.000000e+000  5.000000e+000
    endloop
  endfacet
  facet normal -9.999999e-001  0.000000e+000  0.000000e+000
    outer loop
      vertex -2.000000e+001 -1.600000e+000  4.000000e+000
      vertex -2.000000e+001 -5.000000e+000  5.000000e+000
      vertex -2.000000e+001 -1.600000e+000  5.000000e+000
    endloop
  endfacet
  facet normal  0.000000e+000  1.000000e+000  0.000000e+000
    outer loop
      vertex -2.000000e+001  5.000000e+000  0.000000e+000
      vertex -2.000000e+001  5.000000e+000  5.000000e+000
      vertex  2.000000e+001  5.000000e+000  0.000000e+000
    endloop
  endfacet
  facet normal  0.000000e+000  1.000000e+000  -0.000000e+000
    outer loop
      vertex  2.000000e+001  5.000000e+000  0.000000e+000
      vertex -2.000000e+001  5.000000e+000  5.000000e+000
      vertex  2.000000e+001  5.000000e+000  5.000000e+000
    endloop
  endfacet
  facet normal  0.000000e+000  3.552713e-016  1.000000e+000
    outer loop
      vertex -2.000000e+001  1.000000e+001 -1.776357e-015
      vertex -2.000000e+001  5.000000e+000  0.000000e+000
      vertex  2.000000e+001  1.000000e+001 -1.776357e-015
    endloop
  endfacet
  facet normal  0.000000e+000  3.552713e-016  1.000000e+000
    outer loop
      vertex  2.000000e+001  1.000000e+001 -1.776357e-015
      vertex -2.000000e+001  5.000000e+000  0.000000e+000
      vertex  2.000000e+001  5.000000e+000  0.000000e+000
    endloop
  endfacet
  facet normal  0.000000e+000  1.000000e+000  0.000000e+000
    outer loop
      vertex -2.000000e+001  1.000000e+001 -5.000000e+000
      vertex -2.000000e+001  1.000000e+001 -1.776357e-015
      vertex  2.000000e+001  1.000000e+001 -5.000000e+000
    endloop
  endfacet
  facet normal  0.000000e+000  1.000000e+000  -0.000000e+000
    outer loop
      vertex  2.000000e+001  1.000000e+001 -5.000000e+000
      vertex -2.000000e+001  1.000000e+001 -1.776357e-015
      vertex  2.000000e+001  1.000000e+001 -1.776357e-015
    endloop
  endfacet
  facet normal  0.000000e+000 -1.000000e+000  0.000000e+000
    outer loop
      vertex -2.000000e+001 -1.000000e+001  0.000000e+000
      vertex -2.000000e+001 -1.000000e+001 -5.000000e+000
      vertex  2.000000e+001 -1.000000e+001  0.000000e+000
    endloop
  endfacet
  facet normal  0.000000e+000 -1.000000e+000  -0.000000e+000
    outer loop
      vertex  2.000000e+001 -1.000000e+001  0.000000e+000
      vertex -2.000000e+001 -1.000000e+001 -5.000000e+000
      vertex  2.000000e+001 -1.000000e+001 -5.000000e+000
    endloop
  endfacet
  facet normal  0.000000e+000  8.881784e-016  1.000000e+000
    outer loop
      vertex -2.000000e+001 -5.000000e+000 -4.440892e-015
      vertex -2.000000e+001 -1.000000e+001  0.000000e+000
      vertex  2.000000e+001 -5.000000e+000 -4.440892e-015
    endloop
  endfacet
  facet normal  0.000000e+000  8.881784e-016  1.000000e+000
    outer loop
      vertex  2.000000e+001 -5.000000e+000 -4.440892e-015
      vertex -2.000000e+001 -1.000000e+001  0.000000e+000
      vertex  2.000000e+001 -1.000000e+001  0.000000e+000
    endloop
  endfacet
  facet normal  0.000000e+000 -1.000000e+000  0.000000e+000
    outer loop
      vertex -2.000000e+001 -5.000000e+000  5.000000e+000
      vertex -2.000000e+001 -5.000000e+000 -4.440892e-015
      vertex  2.000000e+001 -5.000000e+000  5.000000e+000
    endloop
  endfacet
  facet normal  0.000000e+000 -1.000000e+000  -0.000000e+000
    outer loop
      vertex  2.000000e+001 -5.000000e+000  5.000000e+000
      vertex -2.000000e+001 -5.000000e+000 -4.440892e-015
      vertex  2.000000e+001 -5.000000e+000 -4.440892e-015
    endloop
  endfacet
endsolid CATIA STL
