solid CATIA STL
  facet normal  0.000000e+000  0.000000e+000 -1.000000e+000
    outer loop
      vertex -2.000000e+001 -5.000000e+000  0.000000e+000
      vertex -2.000000e+001 -1.000000e+000  0.000000e+000
      vertex -3.614208e+000 -1.000000e+000  0.000000e+000
    endloop
  endfacet
  facet normal  0.000000e+000  -0.000000e+000 -9.999999e-001
    outer loop
      vertex -2.000000e+001 -5.000000e+000  0.000000e+000
      vertex -3.614208e+000 -1.000000e+000  0.000000e+000
      vertex -2.270738e+000 -2.984334e+000  0.000000e+000
    endloop
  endfacet
  facet normal  0.000000e+000  -0.000000e+000 -1.000000e+000
    outer loop
      vertex -2.000000e+001 -5.000000e+000  0.000000e+000
      vertex -2.270738e+000 -2.984334e+000  0.000000e+000
      vertex  1.902517e-015 -3.750000e+000  0.000000e+000
    endloop
  endfacet
  facet normal  0.000000e+000  -0.000000e+000 -1.000000e+000
    outer loop
      vertex -2.000000e+001 -5.000000e+000  0.000000e+000
      vertex  1.902517e-015 -3.750000e+000  0.000000e+000
      vertex  2.000000e+001 -5.000000e+000  0.000000e+000
    endloop
  endfacet
  facet normal  0.000000e+000  0.000000e+000 -1.000000e+000
    outer loop
      vertex  2.000000e+001 -1.000000e+000  0.000000e+000
      vertex  2.000000e+001 -5.000000e+000  0.000000e+000
      vertex  1.902517e-015 -3.750000e+000  0.000000e+000
    endloop
  endfacet
  facet normal  0.000000e+000  0.000000e+000 -1.000000e+000
    outer loop
      vertex  2.000000e+001 -1.000000e+000  0.000000e+000
      vertex  1.902517e-015 -3.750000e+000  0.000000e+000
      vertex  2.270738e+000 -2.984334e+000  0.000000e+000
    endloop
  endfacet
  facet normal  0.000000e+000  0.000000e+000 -1.000000e+000
    outer loop
      vertex  2.000000e+001 -1.000000e+000  0.000000e+000
      vertex  2.270738e+000 -2.984334e+000  0.000000e+000
      vertex  3.614208e+000 -1.000000e+000  0.000000e+000
    endloop
  endfacet
  facet normal  0.000000e+000 -9.999999e-001  0.000000e+000
    outer loop
      vertex  3.614208e+000 -1.000000e+000  0.000000e+000
      vertex  3.614208e+000 -1.000000e+000 -9.500000e-001
      vertex  2.000000e+001 -1.000000e+000  0.000000e+000
    endloop
  endfacet
  facet normal  0.000000e+000 -9.999999e-001  -0.000000e+000
    outer loop
      vertex  2.000000e+001 -1.000000e+000  0.000000e+000
      vertex  3.614208e+000 -1.000000e+000 -9.500000e-001
      vertex  2.000000e+001 -1.000000e+000 -9.500000e-001
    endloop
  endfacet
  facet normal  0.000000e+000 -9.999999e-001  0.000000e+000
    outer loop
      vertex -2.000000e+001 -1.000000e+000  0.000000e+000
      vertex -2.000000e+001 -1.000000e+000 -9.500000e-001
      vertex -3.614208e+000 -1.000000e+000  0.000000e+000
    endloop
  endfacet
  facet normal  0.000000e+000 -9.999999e-001  -0.000000e+000
    outer loop
      vertex -3.614208e+000 -1.000000e+000  0.000000e+000
      vertex -2.000000e+001 -1.000000e+000 -9.500000e-001
      vertex -3.614208e+000 -1.000000e+000 -9.500000e-001
    endloop
  endfacet
  facet normal  0.000000e+000  0.000000e+000 -1.000000e+000
    outer loop
      vertex  2.000000e+001 -1.000000e+000 -9.500000e-001
      vertex  3.614208e+000 -1.000000e+000 -9.500000e-001
      vertex  2.000000e+001  1.000000e+000 -9.500000e-001
    endloop
  endfacet
  facet normal  0.000000e+000  0.000000e+000 -1.000000e+000
    outer loop
      vertex  2.000000e+001  1.000000e+000 -9.500000e-001
      vertex  3.614208e+000 -1.000000e+000 -9.500000e-001
      vertex  3.750000e+000  0.000000e+000 -9.500000e-001
    endloop
  endfacet
  facet normal  0.000000e+000  0.000000e+000 -1.000000e+000
    outer loop
      vertex  2.000000e+001  1.000000e+000 -9.500000e-001
      vertex  3.750000e+000  0.000000e+000 -9.500000e-001
      vertex  3.614208e+000  1.000000e+000 -9.500000e-001
    endloop
  endfacet
  facet normal  -0.000000e+000  0.000000e+000 -1.000000e+000
    outer loop
      vertex -2.000000e+001  1.000000e+000 -9.500000e-001
      vertex -3.614208e+000  1.000000e+000 -9.500000e-001
      vertex -2.000000e+001 -1.000000e+000 -9.500000e-001
    endloop
  endfacet
  facet normal  0.000000e+000  0.000000e+000 -1.000000e+000
    outer loop
      vertex -2.000000e+001 -1.000000e+000 -9.500000e-001
      vertex -3.614208e+000  1.000000e+000 -9.500000e-001
      vertex -3.750000e+000  2.124562e-015 -9.500000e-001
    endloop
  endfacet
  facet normal  0.000000e+000  -0.000000e+000 -1.000000e+000
    outer loop
      vertex -2.000000e+001 -1.000000e+000 -9.500000e-001
      vertex -3.750000e+000  2.124562e-015 -9.500000e-001
      vertex -3.614208e+000 -1.000000e+000 -9.500000e-001
    endloop
  endfacet
  facet normal  0.000000e+000  9.999999e-001  0.000000e+000
    outer loop
      vertex  3.614208e+000  1.000000e+000 -9.500000e-001
      vertex  3.614208e+000  1.000000e+000  0.000000e+000
      vertex  2.000000e+001  1.000000e+000 -9.500000e-001
    endloop
  endfacet
  facet normal  0.000000e+000  9.999999e-001  -0.000000e+000
    outer loop
      vertex  2.000000e+001  1.000000e+000 -9.500000e-001
      vertex  3.614208e+000  1.000000e+000  0.000000e+000
      vertex  2.000000e+001  1.000000e+000  0.000000e+000
    endloop
  endfacet
  facet normal  0.000000e+000  9.999999e-001  0.000000e+000
    outer loop
      vertex -2.000000e+001  1.000000e+000 -9.500000e-001
      vertex -2.000000e+001  1.000000e+000  0.000000e+000
      vertex -3.614208e+000  1.000000e+000 -9.500000e-001
    endloop
  endfacet
  facet normal  0.000000e+000  9.999999e-001  -0.000000e+000
    outer loop
      vertex -3.614208e+000  1.000000e+000 -9.500000e-001
      vertex -2.000000e+001  1.000000e+000  0.000000e+000
      vertex -3.614208e+000  1.000000e+000  0.000000e+000
    endloop
  endfacet
  facet normal  -0.000000e+000  0.000000e+000 -1.000000e+000
    outer loop
      vertex -2.000000e+001  5.000000e+000  0.000000e+000
      vertex -4.249124e-015  3.750000e+000  0.000000e+000
      vertex -2.270738e+000  2.984334e+000  0.000000e+000
    endloop
  endfacet
  facet normal  -0.000000e+000  0.000000e+000 -1.000000e+000
    outer loop
      vertex -2.000000e+001  5.000000e+000  0.000000e+000
      vertex -2.270738e+000  2.984334e+000  0.000000e+000
      vertex -3.614208e+000  1.000000e+000  0.000000e+000
    endloop
  endfacet
  facet normal  0.000000e+000  0.000000e+000 -1.000000e+000
    outer loop
      vertex -2.000000e+001  5.000000e+000  0.000000e+000
      vertex -3.614208e+000  1.000000e+000  0.000000e+000
      vertex -2.000000e+001  1.000000e+000  0.000000e+000
    endloop
  endfacet
  facet normal  0.000000e+000  0.000000e+000 -1.000000e+000
    outer loop
      vertex  2.000000e+001  5.000000e+000  0.000000e+000
      vertex  2.000000e+001  1.000000e+000  0.000000e+000
      vertex  3.614208e+000  1.000000e+000  0.000000e+000
    endloop
  endfacet
  facet normal  0.000000e+000  0.000000e+000 -9.999999e-001
    outer loop
      vertex  2.000000e+001  5.000000e+000  0.000000e+000
      vertex  3.614208e+000  1.000000e+000  0.000000e+000
      vertex  2.270738e+000  2.984334e+000  0.000000e+000
    endloop
  endfacet
  facet normal  0.000000e+000  0.000000e+000 -1.000000e+000
    outer loop
      vertex  2.000000e+001  5.000000e+000  0.000000e+000
      vertex  2.270738e+000  2.984334e+000  0.000000e+000
      vertex -4.249124e-015  3.750000e+000  0.000000e+000
    endloop
  endfacet
  facet normal  0.000000e+000  0.000000e+000 -1.000000e+000
    outer loop
      vertex  2.000000e+001  5.000000e+000  0.000000e+000
      vertex -4.249124e-015  3.750000e+000  0.000000e+000
      vertex -2.000000e+001  5.000000e+000  0.000000e+000
    endloop
  endfacet
  facet normal  0.000000e+000  0.000000e+000  9.999999e-001
    outer loop
      vertex -2.000000e+001 -5.000000e+000  9.000000e+000
      vertex -3.033814e+000 -2.204195e+000  9.000000e+000
      vertex -3.750000e+000  2.124562e-015  9.000000e+000
    endloop
  endfacet
  facet normal  0.000000e+000  0.000000e+000  1.000000e+000
    outer loop
      vertex -2.000000e+001 -5.000000e+000  9.000000e+000
      vertex -1.158814e+000 -3.566462e+000  9.000000e+000
      vertex -3.033814e+000 -2.204195e+000  9.000000e+000
    endloop
  endfacet
  facet normal  0.000000e+000  0.000000e+000  9.999999e-001
    outer loop
      vertex  2.000000e+001 -5.000000e+000  9.000000e+000
      vertex  3.750000e+000  0.000000e+000  9.000000e+000
      vertex  3.033814e+000 -2.204195e+000  9.000000e+000
    endloop
  endfacet
  facet normal  0.000000e+000  0.000000e+000  1.000000e+000
    outer loop
      vertex  2.000000e+001 -5.000000e+000  9.000000e+000
      vertex  3.033814e+000 -2.204195e+000  9.000000e+000
      vertex  1.158814e+000 -3.566462e+000  9.000000e+000
    endloop
  endfacet
  facet normal  0.000000e+000  0.000000e+000  1.000000e+000
    outer loop
      vertex  2.000000e+001 -5.000000e+000  9.000000e+000
      vertex  1.158814e+000 -3.566462e+000  9.000000e+000
      vertex -1.158814e+000 -3.566462e+000  9.000000e+000
    endloop
  endfacet
  facet normal  0.000000e+000  0.000000e+000  1.000000e+000
    outer loop
      vertex  2.000000e+001 -5.000000e+000  9.000000e+000
      vertex -1.158814e+000 -3.566462e+000  9.000000e+000
      vertex -2.000000e+001 -5.000000e+000  9.000000e+000
    endloop
  endfacet
  facet normal  0.000000e+000  0.000000e+000  1.000000e+000
    outer loop
      vertex -2.000000e+001  5.000000e+000  9.000000e+000
      vertex -2.000000e+001 -5.000000e+000  9.000000e+000
      vertex -3.750000e+000  2.124562e-015  9.000000e+000
    endloop
  endfacet
  facet normal  0.000000e+000  -0.000000e+000  9.999999e-001
    outer loop
      vertex -2.000000e+001  5.000000e+000  9.000000e+000
      vertex -3.750000e+000  2.124562e-015  9.000000e+000
      vertex -3.033814e+000  2.204195e+000  9.000000e+000
    endloop
  endfacet
  facet normal  0.000000e+000  -0.000000e+000  1.000000e+000
    outer loop
      vertex -2.000000e+001  5.000000e+000  9.000000e+000
      vertex -3.033814e+000  2.204195e+000  9.000000e+000
      vertex -1.158814e+000  3.566462e+000  9.000000e+000
    endloop
  endfacet
  facet normal  0.000000e+000  -0.000000e+000  1.000000e+000
    outer loop
      vertex -2.000000e+001  5.000000e+000  9.000000e+000
      vertex -1.158814e+000  3.566462e+000  9.000000e+000
      vertex  1.158814e+000  3.566462e+000  9.000000e+000
    endloop
  endfacet
  facet normal  0.000000e+000  -0.000000e+000  1.000000e+000
    outer loop
      vertex -2.000000e+001  5.000000e+000  9.000000e+000
      vertex  1.158814e+000  3.566462e+000  9.000000e+000
      vertex  2.000000e+001  5.000000e+000  9.000000e+000
    endloop
  endfacet
  facet normal  -0.000000e+000  0.000000e+000  1.000000e+000
    outer loop
      vertex  2.000000e+001  5.000000e+000  9.000000e+000
      vertex  1.158814e+000  3.566462e+000  9.000000e+000
      vertex  3.033814e+000  2.204195e+000  9.000000e+000
    endloop
  endfacet
  facet normal  -0.000000e+000  0.000000e+000  9.999999e-001
    outer loop
      vertex  2.000000e+001  5.000000e+000  9.000000e+000
      vertex  3.033814e+000  2.204195e+000  9.000000e+000
      vertex  3.750000e+000  0.000000e+000  9.000000e+000
    endloop
  endfacet
  facet normal  -0.000000e+000  0.000000e+000  1.000000e+000
    outer loop
      vertex  2.000000e+001  5.000000e+000  9.000000e+000
      vertex  3.750000e+000  0.000000e+000  9.000000e+000
      vertex  2.000000e+001 -5.000000e+000  9.000000e+000
    endloop
  endfacet
  facet normal  5.876643e-001 -8.088505e-001 -2.028705e-002
    outer loop
      vertex -1.158814e+000  3.566462e+000  9.000000e+000
      vertex -3.033814e+000  2.204195e+000  9.000000e+000
      vertex -2.270738e+000  2.984334e+000  0.000000e+000
    endloop
  endfacet
  facet normal  3.194374e-001 -9.473563e-001  2.181029e-002
    outer loop
      vertex -4.249124e-015  3.750000e+000  0.000000e+000
      vertex -1.158814e+000  3.566462e+000  9.000000e+000
      vertex -2.270738e+000  2.984334e+000  0.000000e+000
    endloop
  endfacet
  facet normal  -0.000000e+000 -9.997921e-001 -2.038887e-002
    outer loop
      vertex -4.249124e-015  3.750000e+000  0.000000e+000
      vertex  1.158814e+000  3.566462e+000  9.000000e+000
      vertex -1.158814e+000  3.566462e+000  9.000000e+000
    endloop
  endfacet
  facet normal -3.194374e-001 -9.473563e-001  2.181029e-002
    outer loop
      vertex  1.158814e+000  3.566462e+000  9.000000e+000
      vertex -4.249124e-015  3.750000e+000  0.000000e+000
      vertex  2.270738e+000  2.984334e+000  0.000000e+000
    endloop
  endfacet
  facet normal -5.876643e-001 -8.088505e-001 -2.028705e-002
    outer loop
      vertex  2.270738e+000  2.984334e+000  0.000000e+000
      vertex  3.033814e+000  2.204195e+000  9.000000e+000
      vertex  1.158814e+000  3.566462e+000  9.000000e+000
    endloop
  endfacet
  facet normal  8.278719e-001 -5.605011e-001  2.160671e-002
    outer loop
      vertex -3.614208e+000  1.000000e+000  0.000000e+000
      vertex -2.270738e+000  2.984334e+000  0.000000e+000
      vertex -3.033814e+000  2.204195e+000  9.000000e+000
    endloop
  endfacet
  facet normal  9.508666e-001 -3.089553e-001 -1.998169e-002
    outer loop
      vertex -3.614208e+000  1.000000e+000  0.000000e+000
      vertex -3.033814e+000  2.204195e+000  9.000000e+000
      vertex -3.750000e+000  2.124562e-015  9.000000e+000
    endloop
  endfacet
  facet normal  9.909058e-001 -1.345571e-001  0.000000e+000
    outer loop
      vertex -3.614208e+000  1.000000e+000  0.000000e+000
      vertex -3.750000e+000  2.124562e-015  9.000000e+000
      vertex -3.750000e+000  2.124562e-015 -9.500000e-001
    endloop
  endfacet
  facet normal  9.909058e-001 -1.345571e-001  0.000000e+000
    outer loop
      vertex -3.614208e+000  1.000000e+000  0.000000e+000
      vertex -3.750000e+000  2.124562e-015 -9.500000e-001
      vertex -3.614208e+000  1.000000e+000 -9.500000e-001
    endloop
  endfacet
  facet normal -9.909058e-001 -1.345571e-001  0.000000e+000
    outer loop
      vertex  3.614208e+000  1.000000e+000  0.000000e+000
      vertex  3.614208e+000  1.000000e+000 -9.500000e-001
      vertex  3.750000e+000  0.000000e+000 -9.500000e-001
    endloop
  endfacet
  facet normal -9.909058e-001 -1.345571e-001  0.000000e+000
    outer loop
      vertex  3.614208e+000  1.000000e+000  0.000000e+000
      vertex  3.750000e+000  0.000000e+000 -9.500000e-001
      vertex  3.750000e+000  0.000000e+000  9.000000e+000
    endloop
  endfacet
  facet normal -9.508666e-001 -3.089553e-001 -1.998169e-002
    outer loop
      vertex  3.614208e+000  1.000000e+000  0.000000e+000
      vertex  3.750000e+000  0.000000e+000  9.000000e+000
      vertex  3.033814e+000  2.204195e+000  9.000000e+000
    endloop
  endfacet
  facet normal -8.278719e-001 -5.605011e-001  2.160671e-002
    outer loop
      vertex  3.614208e+000  1.000000e+000  0.000000e+000
      vertex  3.033814e+000  2.204195e+000  9.000000e+000
      vertex  2.270738e+000  2.984334e+000  0.000000e+000
    endloop
  endfacet
  facet normal -5.876643e-001  8.088505e-001 -2.028705e-002
    outer loop
      vertex  1.158814e+000 -3.566462e+000  9.000000e+000
      vertex  3.033814e+000 -2.204195e+000  9.000000e+000
      vertex  2.270738e+000 -2.984334e+000  0.000000e+000
    endloop
  endfacet
  facet normal -3.194374e-001  9.473563e-001  2.181029e-002
    outer loop
      vertex  1.902517e-015 -3.750000e+000  0.000000e+000
      vertex  1.158814e+000 -3.566462e+000  9.000000e+000
      vertex  2.270738e+000 -2.984334e+000  0.000000e+000
    endloop
  endfacet
  facet normal  0.000000e+000  9.997921e-001 -2.038887e-002
    outer loop
      vertex  1.902517e-015 -3.750000e+000  0.000000e+000
      vertex -1.158814e+000 -3.566462e+000  9.000000e+000
      vertex  1.158814e+000 -3.566462e+000  9.000000e+000
    endloop
  endfacet
  facet normal  3.194374e-001  9.473563e-001  2.181029e-002
    outer loop
      vertex -1.158814e+000 -3.566462e+000  9.000000e+000
      vertex  1.902517e-015 -3.750000e+000  0.000000e+000
      vertex -2.270738e+000 -2.984334e+000  0.000000e+000
    endloop
  endfacet
  facet normal  5.876643e-001  8.088505e-001 -2.028705e-002
    outer loop
      vertex -2.270738e+000 -2.984334e+000  0.000000e+000
      vertex -3.033814e+000 -2.204195e+000  9.000000e+000
      vertex -1.158814e+000 -3.566462e+000  9.000000e+000
    endloop
  endfacet
  facet normal -8.278719e-001  5.605011e-001  2.160671e-002
    outer loop
      vertex  3.614208e+000 -1.000000e+000  0.000000e+000
      vertex  2.270738e+000 -2.984334e+000  0.000000e+000
      vertex  3.033814e+000 -2.204195e+000  9.000000e+000
    endloop
  endfacet
  facet normal -9.508666e-001  3.089553e-001 -1.998169e-002
    outer loop
      vertex  3.614208e+000 -1.000000e+000  0.000000e+000
      vertex  3.033814e+000 -2.204195e+000  9.000000e+000
      vertex  3.750000e+000  0.000000e+000  9.000000e+000
    endloop
  endfacet
  facet normal -9.909058e-001  1.345571e-001  0.000000e+000
    outer loop
      vertex  3.614208e+000 -1.000000e+000  0.000000e+000
      vertex  3.750000e+000  0.000000e+000  9.000000e+000
      vertex  3.750000e+000  0.000000e+000 -9.500000e-001
    endloop
  endfacet
  facet normal -9.909058e-001  1.345571e-001  0.000000e+000
    outer loop
      vertex  3.614208e+000 -1.000000e+000  0.000000e+000
      vertex  3.750000e+000  0.000000e+000 -9.500000e-001
      vertex  3.614208e+000 -1.000000e+000 -9.500000e-001
    endloop
  endfacet
  facet normal  9.909058e-001  1.345571e-001  -0.000000e+000
    outer loop
      vertex -3.614208e+000 -1.000000e+000  0.000000e+000
      vertex -3.614208e+000 -1.000000e+000 -9.500000e-001
      vertex -3.750000e+000  2.124562e-015 -9.500000e-001
    endloop
  endfacet
  facet normal  9.909058e-001  1.345571e-001  -0.000000e+000
    outer loop
      vertex -3.614208e+000 -1.000000e+000  0.000000e+000
      vertex -3.750000e+000  2.124562e-015 -9.500000e-001
      vertex -3.750000e+000  2.124562e-015  9.000000e+000
    endloop
  endfacet
  facet normal  9.508666e-001  3.089553e-001 -1.998169e-002
    outer loop
      vertex -3.614208e+000 -1.000000e+000  0.000000e+000
      vertex -3.750000e+000  2.124562e-015  9.000000e+000
      vertex -3.033814e+000 -2.204195e+000  9.000000e+000
    endloop
  endfacet
  facet normal  8.278719e-001  5.605011e-001  2.160671e-002
    outer loop
      vertex -3.614208e+000 -1.000000e+000  0.000000e+000
      vertex -3.033814e+000 -2.204195e+000  9.000000e+000
      vertex -2.270738e+000 -2.984334e+000  0.000000e+000
    endloop
  endfacet
  facet normal  1.000000e+000  -0.000000e+000  0.000000e+000
    outer loop
      vertex  2.000000e+001  5.000000e+000  9.000000e+000
      vertex  2.000000e+001 -5.000000e+000  9.000000e+000
      vertex  2.000000e+001 -5.000000e+000  0.000000e+000
    endloop
  endfacet
  facet normal  1.000000e+000  0.000000e+000  0.000000e+000
    outer loop
      vertex  2.000000e+001  5.000000e+000  9.000000e+000
      vertex  2.000000e+001 -5.000000e+000  0.000000e+000
      vertex  2.000000e+001 -1.000000e+000  0.000000e+000
    endloop
  endfacet
  facet normal  1.000000e+000  0.000000e+000  0.000000e+000
    outer loop
      vertex  2.000000e+001  5.000000e+000  9.000000e+000
      vertex  2.000000e+001 -1.000000e+000  0.000000e+000
      vertex  2.000000e+001  1.000000e+000  0.000000e+000
    endloop
  endfacet
  facet normal  1.000000e+000  0.000000e+000  0.000000e+000
    outer loop
      vertex  2.000000e+001  5.000000e+000  9.000000e+000
      vertex  2.000000e+001  1.000000e+000  0.000000e+000
      vertex  2.000000e+001  5.000000e+000  0.000000e+000
    endloop
  endfacet
  facet normal  1.000000e+000  0.000000e+000  0.000000e+000
    outer loop
      vertex  2.000000e+001 -1.000000e+000 -9.500000e-001
      vertex  2.000000e+001  1.000000e+000 -9.500000e-001
      vertex  2.000000e+001 -1.000000e+000  0.000000e+000
    endloop
  endfacet
  facet normal  1.000000e+000  -0.000000e+000  0.000000e+000
    outer loop
      vertex  2.000000e+001 -1.000000e+000  0.000000e+000
      vertex  2.000000e+001  1.000000e+000 -9.500000e-001
      vertex  2.000000e+001  1.000000e+000  0.000000e+000
    endloop
  endfacet
  facet normal -1.000000e+000  0.000000e+000  0.000000e+000
    outer loop
      vertex -2.000000e+001  5.000000e+000  9.000000e+000
      vertex -2.000000e+001  5.000000e+000  0.000000e+000
      vertex -2.000000e+001  1.000000e+000  0.000000e+000
    endloop
  endfacet
  facet normal -1.000000e+000  0.000000e+000  0.000000e+000
    outer loop
      vertex -2.000000e+001  5.000000e+000  9.000000e+000
      vertex -2.000000e+001  1.000000e+000  0.000000e+000
      vertex -2.000000e+001 -1.000000e+000  0.000000e+000
    endloop
  endfacet
  facet normal -1.000000e+000  0.000000e+000  0.000000e+000
    outer loop
      vertex -2.000000e+001  5.000000e+000  9.000000e+000
      vertex -2.000000e+001 -1.000000e+000  0.000000e+000
      vertex -2.000000e+001 -5.000000e+000  0.000000e+000
    endloop
  endfacet
  facet normal -1.000000e+000  0.000000e+000  0.000000e+000
    outer loop
      vertex -2.000000e+001  5.000000e+000  9.000000e+000
      vertex -2.000000e+001 -5.000000e+000  0.000000e+000
      vertex -2.000000e+001 -5.000000e+000  9.000000e+000
    endloop
  endfacet
  facet normal -1.000000e+000  0.000000e+000  0.000000e+000
    outer loop
      vertex -2.000000e+001 -1.000000e+000 -9.500000e-001
      vertex -2.000000e+001 -1.000000e+000  0.000000e+000
      vertex -2.000000e+001  1.000000e+000 -9.500000e-001
    endloop
  endfacet
  facet normal -1.000000e+000  0.000000e+000  0.000000e+000
    outer loop
      vertex -2.000000e+001  1.000000e+000 -9.500000e-001
      vertex -2.000000e+001 -1.000000e+000  0.000000e+000
      vertex -2.000000e+001  1.000000e+000  0.000000e+000
    endloop
  endfacet
  facet normal  0.000000e+000 -1.000000e+000  0.000000e+000
    outer loop
      vertex -2.000000e+001 -5.000000e+000  9.000000e+000
      vertex -2.000000e+001 -5.000000e+000  0.000000e+000
      vertex  2.000000e+001 -5.000000e+000  9.000000e+000
    endloop
  endfacet
  facet normal  0.000000e+000 -1.000000e+000  -0.000000e+000
    outer loop
      vertex  2.000000e+001 -5.000000e+000  9.000000e+000
      vertex -2.000000e+001 -5.000000e+000  0.000000e+000
      vertex  2.000000e+001 -5.000000e+000  0.000000e+000
    endloop
  endfacet
  facet normal  0.000000e+000  1.000000e+000  0.000000e+000
    outer loop
      vertex -2.000000e+001  5.000000e+000  0.000000e+000
      vertex -2.000000e+001  5.000000e+000  9.000000e+000
      vertex  2.000000e+001  5.000000e+000  0.000000e+000
    endloop
  endfacet
  facet normal  0.000000e+000  1.000000e+000  -0.000000e+000
    outer loop
      vertex  2.000000e+001  5.000000e+000  0.000000e+000
      vertex -2.000000e+001  5.000000e+000  9.000000e+000
      vertex  2.000000e+001  5.000000e+000  9.000000e+000
    endloop
  endfacet
endsolid CATIA STL
