solid CATIA STL
  facet normal  0.000000e+000  0.000000e+000  1.000000e+000
    outer loop
      vertex -2.000000e+001  5.000000e+000  5.000000e+000
      vertex -2.000000e+001  1.100000e+000  5.000000e+000
      vertex -3.585038e+000  1.100000e+000  5.000000e+000
    endloop
  endfacet
  facet normal  0.000000e+000  -0.000000e+000  1.000000e+000
    outer loop
      vertex -2.000000e+001  5.000000e+000  5.000000e+000
      vertex -3.585038e+000  1.100000e+000  5.000000e+000
      vertex -2.229069e+000  3.015584e+000  5.000000e+000
    endloop
  endfacet
  facet normal  0.000000e+000  -0.000000e+000  1.000000e+000
    outer loop
      vertex -2.000000e+001  5.000000e+000  5.000000e+000
      vertex -2.229069e+000  3.015584e+000  5.000000e+000
      vertex -6.030536e-016  3.750000e+000  5.000000e+000
    endloop
  endfacet
  facet normal  0.000000e+000  -0.000000e+000  1.000000e+000
    outer loop
      vertex -2.000000e+001  5.000000e+000  5.000000e+000
      vertex -6.030536e-016  3.750000e+000  5.000000e+000
      vertex  2.000000e+001  5.000000e+000  5.000000e+000
    endloop
  endfacet
  facet normal  0.000000e+000  0.000000e+000  1.000000e+000
    outer loop
      vertex  2.000000e+001  1.100000e+000  5.000000e+000
      vertex  2.000000e+001  5.000000e+000  5.000000e+000
      vertex -6.030536e-016  3.750000e+000  5.000000e+000
    endloop
  endfacet
  facet normal  0.000000e+000  0.000000e+000  1.000000e+000
    outer loop
      vertex  2.000000e+001  1.100000e+000  5.000000e+000
      vertex -6.030536e-016  3.750000e+000  5.000000e+000
      vertex  2.229069e+000  3.015584e+000  5.000000e+000
    endloop
  endfacet
  facet normal  0.000000e+000  0.000000e+000  9.999999e-001
    outer loop
      vertex  2.000000e+001  1.100000e+000  5.000000e+000
      vertex  2.229069e+000  3.015584e+000  5.000000e+000
      vertex  3.585038e+000  1.100000e+000  5.000000e+000
    endloop
  endfacet
  facet normal  0.000000e+000 -1.000000e+000  0.000000e+000
    outer loop
      vertex  3.585038e+000  1.100000e+000  4.000000e+000
      vertex  2.000000e+001  1.100000e+000  4.000000e+000
      vertex  3.585038e+000  1.100000e+000  5.000000e+000
    endloop
  endfacet
  facet normal  0.000000e+000 -1.000000e+000  0.000000e+000
    outer loop
      vertex  3.585038e+000  1.100000e+000  5.000000e+000
      vertex  2.000000e+001  1.100000e+000  4.000000e+000
      vertex  2.000000e+001  1.100000e+000  5.000000e+000
    endloop
  endfacet
  facet normal  0.000000e+000 -1.000000e+000  0.000000e+000
    outer loop
      vertex -2.000000e+001  1.100000e+000  4.000000e+000
      vertex -3.585038e+000  1.100000e+000  4.000000e+000
      vertex -2.000000e+001  1.100000e+000  5.000000e+000
    endloop
  endfacet
  facet normal  0.000000e+000 -1.000000e+000  0.000000e+000
    outer loop
      vertex -2.000000e+001  1.100000e+000  5.000000e+000
      vertex -3.585038e+000  1.100000e+000  4.000000e+000
      vertex -3.585038e+000  1.100000e+000  5.000000e+000
    endloop
  endfacet
  facet normal  0.000000e+000  0.000000e+000  1.000000e+000
    outer loop
      vertex  3.585038e+000 -1.100000e+000  4.000000e+000
      vertex  2.000000e+001 -1.100000e+000  4.000000e+000
      vertex  3.750000e+000  0.000000e+000  4.000000e+000
    endloop
  endfacet
  facet normal  -0.000000e+000  0.000000e+000  1.000000e+000
    outer loop
      vertex  3.750000e+000  0.000000e+000  4.000000e+000
      vertex  2.000000e+001 -1.100000e+000  4.000000e+000
      vertex  2.000000e+001  1.100000e+000  4.000000e+000
    endloop
  endfacet
  facet normal  0.000000e+000  0.000000e+000  1.000000e+000
    outer loop
      vertex  3.750000e+000  0.000000e+000  4.000000e+000
      vertex  2.000000e+001  1.100000e+000  4.000000e+000
      vertex  3.585038e+000  1.100000e+000  4.000000e+000
    endloop
  endfacet
  facet normal  0.000000e+000  0.000000e+000  1.000000e+000
    outer loop
      vertex -3.585038e+000 -1.100000e+000  4.000000e+000
      vertex -3.750000e+000  2.124562e-015  4.000000e+000
      vertex -2.000000e+001 -1.100000e+000  4.000000e+000
    endloop
  endfacet
  facet normal  0.000000e+000  0.000000e+000  1.000000e+000
    outer loop
      vertex -2.000000e+001 -1.100000e+000  4.000000e+000
      vertex -3.750000e+000  2.124562e-015  4.000000e+000
      vertex -3.585038e+000  1.100000e+000  4.000000e+000
    endloop
  endfacet
  facet normal  0.000000e+000  0.000000e+000  1.000000e+000
    outer loop
      vertex -2.000000e+001 -1.100000e+000  4.000000e+000
      vertex -3.585038e+000  1.100000e+000  4.000000e+000
      vertex -2.000000e+001  1.100000e+000  4.000000e+000
    endloop
  endfacet
  facet normal  0.000000e+000  1.000000e+000  0.000000e+000
    outer loop
      vertex  3.585038e+000 -1.100000e+000  5.000000e+000
      vertex  2.000000e+001 -1.100000e+000  5.000000e+000
      vertex  3.585038e+000 -1.100000e+000  4.000000e+000
    endloop
  endfacet
  facet normal  0.000000e+000  1.000000e+000  0.000000e+000
    outer loop
      vertex  3.585038e+000 -1.100000e+000  4.000000e+000
      vertex  2.000000e+001 -1.100000e+000  5.000000e+000
      vertex  2.000000e+001 -1.100000e+000  4.000000e+000
    endloop
  endfacet
  facet normal  0.000000e+000  1.000000e+000  0.000000e+000
    outer loop
      vertex -2.000000e+001 -1.100000e+000  5.000000e+000
      vertex -3.585038e+000 -1.100000e+000  5.000000e+000
      vertex -2.000000e+001 -1.100000e+000  4.000000e+000
    endloop
  endfacet
  facet normal  0.000000e+000  1.000000e+000  0.000000e+000
    outer loop
      vertex -2.000000e+001 -1.100000e+000  4.000000e+000
      vertex -3.585038e+000 -1.100000e+000  5.000000e+000
      vertex -3.585038e+000 -1.100000e+000  4.000000e+000
    endloop
  endfacet
  facet normal  0.000000e+000  0.000000e+000  1.000000e+000
    outer loop
      vertex -2.000000e+001 -5.000000e+000  5.000000e+000
      vertex  2.641828e-015 -3.750000e+000  5.000000e+000
      vertex -2.229069e+000 -3.015584e+000  5.000000e+000
    endloop
  endfacet
  facet normal  0.000000e+000  0.000000e+000  1.000000e+000
    outer loop
      vertex -2.000000e+001 -5.000000e+000  5.000000e+000
      vertex -2.229069e+000 -3.015584e+000  5.000000e+000
      vertex -3.585038e+000 -1.100000e+000  5.000000e+000
    endloop
  endfacet
  facet normal  0.000000e+000  0.000000e+000  1.000000e+000
    outer loop
      vertex -2.000000e+001 -5.000000e+000  5.000000e+000
      vertex -3.585038e+000 -1.100000e+000  5.000000e+000
      vertex -2.000000e+001 -1.100000e+000  5.000000e+000
    endloop
  endfacet
  facet normal  0.000000e+000  0.000000e+000  1.000000e+000
    outer loop
      vertex  2.000000e+001 -5.000000e+000  5.000000e+000
      vertex  2.000000e+001 -1.100000e+000  5.000000e+000
      vertex  3.585038e+000 -1.100000e+000  5.000000e+000
    endloop
  endfacet
  facet normal  0.000000e+000  0.000000e+000  1.000000e+000
    outer loop
      vertex  2.000000e+001 -5.000000e+000  5.000000e+000
      vertex  3.585038e+000 -1.100000e+000  5.000000e+000
      vertex  2.229069e+000 -3.015584e+000  5.000000e+000
    endloop
  endfacet
  facet normal  0.000000e+000  0.000000e+000  1.000000e+000
    outer loop
      vertex  2.000000e+001 -5.000000e+000  5.000000e+000
      vertex  2.229069e+000 -3.015584e+000  5.000000e+000
      vertex  2.641828e-015 -3.750000e+000  5.000000e+000
    endloop
  endfacet
  facet normal  0.000000e+000  0.000000e+000  1.000000e+000
    outer loop
      vertex  2.000000e+001 -5.000000e+000  5.000000e+000
      vertex  2.641828e-015 -3.750000e+000  5.000000e+000
      vertex -2.000000e+001 -5.000000e+000  5.000000e+000
    endloop
  endfacet
  facet normal  -0.000000e+000  0.000000e+000 -1.000000e+000
    outer loop
      vertex -2.000000e+001  1.000000e+001 -5.000000e+000
      vertex -3.033814e+000  2.204195e+000 -5.000000e+000
      vertex -3.750000e+000  2.124562e-015 -5.000000e+000
    endloop
  endfacet
  facet normal  -0.000000e+000  0.000000e+000 -1.000000e+000
    outer loop
      vertex -2.000000e+001  1.000000e+001 -5.000000e+000
      vertex -1.158814e+000  3.566462e+000 -5.000000e+000
      vertex -3.033814e+000  2.204195e+000 -5.000000e+000
    endloop
  endfacet
  facet normal  0.000000e+000  0.000000e+000 -1.000000e+000
    outer loop
      vertex  2.000000e+001  1.000000e+001 -5.000000e+000
      vertex  3.750000e+000  0.000000e+000 -5.000000e+000
      vertex  3.033814e+000  2.204195e+000 -5.000000e+000
    endloop
  endfacet
  facet normal  0.000000e+000  0.000000e+000 -1.000000e+000
    outer loop
      vertex  2.000000e+001  1.000000e+001 -5.000000e+000
      vertex  3.033814e+000  2.204195e+000 -5.000000e+000
      vertex  1.158814e+000  3.566462e+000 -5.000000e+000
    endloop
  endfacet
  facet normal  0.000000e+000  0.000000e+000 -1.000000e+000
    outer loop
      vertex  2.000000e+001  1.000000e+001 -5.000000e+000
      vertex  1.158814e+000  3.566462e+000 -5.000000e+000
      vertex -1.158814e+000  3.566462e+000 -5.000000e+000
    endloop
  endfacet
  facet normal  0.000000e+000  0.000000e+000 -1.000000e+000
    outer loop
      vertex  2.000000e+001  1.000000e+001 -5.000000e+000
      vertex -1.158814e+000  3.566462e+000 -5.000000e+000
      vertex -2.000000e+001  1.000000e+001 -5.000000e+000
    endloop
  endfacet
  facet normal  0.000000e+000  0.000000e+000 -1.000000e+000
    outer loop
      vertex -2.000000e+001 -1.000000e+001 -5.000000e+000
      vertex -2.000000e+001  1.000000e+001 -5.000000e+000
      vertex -3.750000e+000  2.124562e-015 -5.000000e+000
    endloop
  endfacet
  facet normal  0.000000e+000  -0.000000e+000 -1.000000e+000
    outer loop
      vertex -2.000000e+001 -1.000000e+001 -5.000000e+000
      vertex -3.750000e+000  2.124562e-015 -5.000000e+000
      vertex -3.033814e+000 -2.204195e+000 -5.000000e+000
    endloop
  endfacet
  facet normal  0.000000e+000  -0.000000e+000 -1.000000e+000
    outer loop
      vertex -2.000000e+001 -1.000000e+001 -5.000000e+000
      vertex -3.033814e+000 -2.204195e+000 -5.000000e+000
      vertex -1.158814e+000 -3.566462e+000 -5.000000e+000
    endloop
  endfacet
  facet normal  0.000000e+000  -0.000000e+000 -1.000000e+000
    outer loop
      vertex -2.000000e+001 -1.000000e+001 -5.000000e+000
      vertex -1.158814e+000 -3.566462e+000 -5.000000e+000
      vertex  1.158814e+000 -3.566462e+000 -5.000000e+000
    endloop
  endfacet
  facet normal  0.000000e+000  -0.000000e+000 -1.000000e+000
    outer loop
      vertex -2.000000e+001 -1.000000e+001 -5.000000e+000
      vertex  1.158814e+000 -3.566462e+000 -5.000000e+000
      vertex  2.000000e+001 -1.000000e+001 -5.000000e+000
    endloop
  endfacet
  facet normal  0.000000e+000  0.000000e+000 -1.000000e+000
    outer loop
      vertex  2.000000e+001 -1.000000e+001 -5.000000e+000
      vertex  1.158814e+000 -3.566462e+000 -5.000000e+000
      vertex  3.033814e+000 -2.204195e+000 -5.000000e+000
    endloop
  endfacet
  facet normal  0.000000e+000  0.000000e+000 -1.000000e+000
    outer loop
      vertex  2.000000e+001 -1.000000e+001 -5.000000e+000
      vertex  3.033814e+000 -2.204195e+000 -5.000000e+000
      vertex  3.750000e+000  0.000000e+000 -5.000000e+000
    endloop
  endfacet
  facet normal  0.000000e+000  0.000000e+000 -1.000000e+000
    outer loop
      vertex  2.000000e+001 -1.000000e+001 -5.000000e+000
      vertex  3.750000e+000  0.000000e+000 -5.000000e+000
      vertex  2.000000e+001  1.000000e+001 -5.000000e+000
    endloop
  endfacet
  facet normal  5.876864e-001 -8.088809e-001  1.833802e-002
    outer loop
      vertex -2.229069e+000  3.015584e+000  5.000000e+000
      vertex -3.033814e+000  2.204195e+000 -5.000000e+000
      vertex -1.158814e+000  3.566462e+000 -5.000000e+000
    endloop
  endfacet
  facet normal  3.128696e-001 -9.496095e-001 -1.882682e-002
    outer loop
      vertex -1.158814e+000  3.566462e+000 -5.000000e+000
      vertex -6.030536e-016  3.750000e+000  5.000000e+000
      vertex -2.229069e+000  3.015584e+000  5.000000e+000
    endloop
  endfacet
  facet normal  0.000000e+000 -9.998316e-001  1.835071e-002
    outer loop
      vertex -6.030536e-016  3.750000e+000  5.000000e+000
      vertex -1.158814e+000  3.566462e+000 -5.000000e+000
      vertex  1.158814e+000  3.566462e+000 -5.000000e+000
    endloop
  endfacet
  facet normal -3.128696e-001 -9.496095e-001 -1.882682e-002
    outer loop
      vertex  1.158814e+000  3.566462e+000 -5.000000e+000
      vertex  2.229069e+000  3.015584e+000  5.000000e+000
      vertex -6.030536e-016  3.750000e+000  5.000000e+000
    endloop
  endfacet
  facet normal -5.876864e-001 -8.088809e-001  1.833802e-002
    outer loop
      vertex  3.033814e+000  2.204195e+000 -5.000000e+000
      vertex  2.229069e+000  3.015584e+000  5.000000e+000
      vertex  1.158814e+000  3.566462e+000 -5.000000e+000
    endloop
  endfacet
  facet normal  9.510565e-001 -3.090170e-001  0.000000e+000
    outer loop
      vertex -3.750000e+000  2.124562e-015 -5.000000e+000
      vertex -3.033814e+000  2.204195e+000 -5.000000e+000
      vertex -3.750000e+000  2.124562e-015  4.000000e+000
    endloop
  endfacet
  facet normal  9.880548e-001 -1.481737e-001  4.233640e-002
    outer loop
      vertex -3.750000e+000  2.124562e-015  4.000000e+000
      vertex -3.033814e+000  2.204195e+000 -5.000000e+000
      vertex -3.585038e+000  1.100000e+000  4.000000e+000
    endloop
  endfacet
  facet normal  8.208796e-001 -5.707597e-001 -1.974897e-002
    outer loop
      vertex -3.033814e+000  2.204195e+000 -5.000000e+000
      vertex -2.229069e+000  3.015584e+000  5.000000e+000
      vertex -3.585038e+000  1.100000e+000  4.000000e+000
    endloop
  endfacet
  facet normal  8.162060e-001 -5.777611e-001  0.000000e+000
    outer loop
      vertex -3.585038e+000  1.100000e+000  4.000000e+000
      vertex -2.229069e+000  3.015584e+000  5.000000e+000
      vertex -3.585038e+000  1.100000e+000  5.000000e+000
    endloop
  endfacet
  facet normal -8.160616e-001 -5.776590e-001 -1.880146e-002
    outer loop
      vertex  2.229069e+000  3.015584e+000  5.000000e+000
      vertex  3.033814e+000  2.204195e+000 -5.000000e+000
      vertex  3.585038e+000  1.100000e+000  5.000000e+000
    endloop
  endfacet
  facet normal -8.947098e-001 -4.466478e-001  -0.000000e+000
    outer loop
      vertex  3.585038e+000  1.100000e+000  5.000000e+000
      vertex  3.033814e+000  2.204195e+000 -5.000000e+000
      vertex  3.585038e+000  1.100000e+000  4.000000e+000
    endloop
  endfacet
  facet normal -9.508599e-001 -3.089531e-001  2.033256e-002
    outer loop
      vertex  3.033814e+000  2.204195e+000 -5.000000e+000
      vertex  3.750000e+000  0.000000e+000 -5.000000e+000
      vertex  3.585038e+000  1.100000e+000  4.000000e+000
    endloop
  endfacet
  facet normal -9.889414e-001 -1.483067e-001  0.000000e+000
    outer loop
      vertex  3.585038e+000  1.100000e+000  4.000000e+000
      vertex  3.750000e+000  0.000000e+000 -5.000000e+000
      vertex  3.750000e+000  0.000000e+000  4.000000e+000
    endloop
  endfacet
  facet normal -5.876864e-001  8.088809e-001  1.833802e-002
    outer loop
      vertex  2.229069e+000 -3.015584e+000  5.000000e+000
      vertex  3.033814e+000 -2.204195e+000 -5.000000e+000
      vertex  1.158814e+000 -3.566462e+000 -5.000000e+000
    endloop
  endfacet
  facet normal -3.128696e-001  9.496095e-001 -1.882682e-002
    outer loop
      vertex  1.158814e+000 -3.566462e+000 -5.000000e+000
      vertex  2.641828e-015 -3.750000e+000  5.000000e+000
      vertex  2.229069e+000 -3.015584e+000  5.000000e+000
    endloop
  endfacet
  facet normal  0.000000e+000  9.998316e-001  1.835071e-002
    outer loop
      vertex  2.641828e-015 -3.750000e+000  5.000000e+000
      vertex  1.158814e+000 -3.566462e+000 -5.000000e+000
      vertex -1.158814e+000 -3.566462e+000 -5.000000e+000
    endloop
  endfacet
  facet normal  3.128696e-001  9.496095e-001 -1.882682e-002
    outer loop
      vertex -1.158814e+000 -3.566462e+000 -5.000000e+000
      vertex -2.229069e+000 -3.015584e+000  5.000000e+000
      vertex  2.641828e-015 -3.750000e+000  5.000000e+000
    endloop
  endfacet
  facet normal  5.876864e-001  8.088809e-001  1.833802e-002
    outer loop
      vertex -3.033814e+000 -2.204195e+000 -5.000000e+000
      vertex -2.229069e+000 -3.015584e+000  5.000000e+000
      vertex -1.158814e+000 -3.566462e+000 -5.000000e+000
    endloop
  endfacet
  facet normal -9.510565e-001  3.090170e-001  0.000000e+000
    outer loop
      vertex  3.750000e+000  0.000000e+000 -5.000000e+000
      vertex  3.033814e+000 -2.204195e+000 -5.000000e+000
      vertex  3.750000e+000  0.000000e+000  4.000000e+000
    endloop
  endfacet
  facet normal -9.880548e-001  1.481737e-001  4.233640e-002
    outer loop
      vertex  3.750000e+000  0.000000e+000  4.000000e+000
      vertex  3.033814e+000 -2.204195e+000 -5.000000e+000
      vertex  3.585038e+000 -1.100000e+000  4.000000e+000
    endloop
  endfacet
  facet normal -8.208796e-001  5.707597e-001 -1.974897e-002
    outer loop
      vertex  3.033814e+000 -2.204195e+000 -5.000000e+000
      vertex  2.229069e+000 -3.015584e+000  5.000000e+000
      vertex  3.585038e+000 -1.100000e+000  4.000000e+000
    endloop
  endfacet
  facet normal -8.162060e-001  5.777611e-001  0.000000e+000
    outer loop
      vertex  3.585038e+000 -1.100000e+000  4.000000e+000
      vertex  2.229069e+000 -3.015584e+000  5.000000e+000
      vertex  3.585038e+000 -1.100000e+000  5.000000e+000
    endloop
  endfacet
  facet normal  8.160616e-001  5.776590e-001 -1.880146e-002
    outer loop
      vertex -2.229069e+000 -3.015584e+000  5.000000e+000
      vertex -3.033814e+000 -2.204195e+000 -5.000000e+000
      vertex -3.585038e+000 -1.100000e+000  5.000000e+000
    endloop
  endfacet
  facet normal  8.947098e-001  4.466478e-001  0.000000e+000
    outer loop
      vertex -3.585038e+000 -1.100000e+000  5.000000e+000
      vertex -3.033814e+000 -2.204195e+000 -5.000000e+000
      vertex -3.585038e+000 -1.100000e+000  4.000000e+000
    endloop
  endfacet
  facet normal  9.508599e-001  3.089531e-001  2.033256e-002
    outer loop
      vertex -3.033814e+000 -2.204195e+000 -5.000000e+000
      vertex -3.750000e+000  2.124562e-015 -5.000000e+000
      vertex -3.585038e+000 -1.100000e+000  4.000000e+000
    endloop
  endfacet
  facet normal  9.889414e-001  1.483067e-001  0.000000e+000
    outer loop
      vertex -3.585038e+000 -1.100000e+000  4.000000e+000
      vertex -3.750000e+000  2.124562e-015 -5.000000e+000
      vertex -3.750000e+000  2.124562e-015  4.000000e+000
    endloop
  endfacet
  facet normal  1.000000e+000  0.000000e+000  -0.000000e+000
    outer loop
      vertex  2.000000e+001 -1.000000e+001 -5.000000e+000
      vertex  2.000000e+001  1.000000e+001 -5.000000e+000
      vertex  2.000000e+001  1.000000e+001 -1.776357e-015
    endloop
  endfacet
  facet normal  1.000000e+000  0.000000e+000  0.000000e+000
    outer loop
      vertex  2.000000e+001 -1.000000e+001 -5.000000e+000
      vertex  2.000000e+001  1.000000e+001 -1.776357e-015
      vertex  2.000000e+001  5.000000e+000  0.000000e+000
    endloop
  endfacet
  facet normal  1.000000e+000  0.000000e+000  0.000000e+000
    outer loop
      vertex  2.000000e+001 -1.000000e+001 -5.000000e+000
      vertex  2.000000e+001  5.000000e+000  0.000000e+000
      vertex  2.000000e+001 -5.000000e+000 -4.440892e-015
    endloop
  endfacet
  facet normal  1.000000e+000  0.000000e+000  0.000000e+000
    outer loop
      vertex  2.000000e+001 -1.000000e+001 -5.000000e+000
      vertex  2.000000e+001 -5.000000e+000 -4.440892e-015
      vertex  2.000000e+001 -1.000000e+001  0.000000e+000
    endloop
  endfacet
  facet normal  1.000000e+000  -0.000000e+000  0.000000e+000
    outer loop
      vertex  2.000000e+001  5.000000e+000  5.000000e+000
      vertex  2.000000e+001  1.100000e+000  5.000000e+000
      vertex  2.000000e+001  5.000000e+000  0.000000e+000
    endloop
  endfacet
  facet normal  9.999999e-001  0.000000e+000  0.000000e+000
    outer loop
      vertex  2.000000e+001  5.000000e+000  0.000000e+000
      vertex  2.000000e+001  1.100000e+000  5.000000e+000
      vertex  2.000000e+001  1.100000e+000  4.000000e+000
    endloop
  endfacet
  facet normal  1.000000e+000  0.000000e+000  0.000000e+000
    outer loop
      vertex  2.000000e+001  5.000000e+000  0.000000e+000
      vertex  2.000000e+001  1.100000e+000  4.000000e+000
      vertex  2.000000e+001 -5.000000e+000 -4.440892e-015
    endloop
  endfacet
  facet normal  1.000000e+000  0.000000e+000  0.000000e+000
    outer loop
      vertex  2.000000e+001 -5.000000e+000 -4.440892e-015
      vertex  2.000000e+001  1.100000e+000  4.000000e+000
      vertex  2.000000e+001 -1.100000e+000  4.000000e+000
    endloop
  endfacet
  facet normal  1.000000e+000  0.000000e+000  0.000000e+000
    outer loop
      vertex  2.000000e+001 -5.000000e+000 -4.440892e-015
      vertex  2.000000e+001 -1.100000e+000  4.000000e+000
      vertex  2.000000e+001 -5.000000e+000  5.000000e+000
    endloop
  endfacet
  facet normal  9.999999e-001  -0.000000e+000  0.000000e+000
    outer loop
      vertex  2.000000e+001 -5.000000e+000  5.000000e+000
      vertex  2.000000e+001 -1.100000e+000  4.000000e+000
      vertex  2.000000e+001 -1.100000e+000  5.000000e+000
    endloop
  endfacet
  facet normal -1.000000e+000  0.000000e+000  0.000000e+000
    outer loop
      vertex -2.000000e+001 -1.000000e+001 -5.000000e+000
      vertex -2.000000e+001 -1.000000e+001  0.000000e+000
      vertex -2.000000e+001 -5.000000e+000 -4.440892e-015
    endloop
  endfacet
  facet normal -1.000000e+000  0.000000e+000  -0.000000e+000
    outer loop
      vertex -2.000000e+001 -1.000000e+001 -5.000000e+000
      vertex -2.000000e+001 -5.000000e+000 -4.440892e-015
      vertex -2.000000e+001  5.000000e+000  0.000000e+000
    endloop
  endfacet
  facet normal -1.000000e+000  0.000000e+000  -0.000000e+000
    outer loop
      vertex -2.000000e+001 -1.000000e+001 -5.000000e+000
      vertex -2.000000e+001  5.000000e+000  0.000000e+000
      vertex -2.000000e+001  1.000000e+001 -1.776357e-015
    endloop
  endfacet
  facet normal -1.000000e+000  0.000000e+000  -0.000000e+000
    outer loop
      vertex -2.000000e+001 -1.000000e+001 -5.000000e+000
      vertex -2.000000e+001  1.000000e+001 -1.776357e-015
      vertex -2.000000e+001  1.000000e+001 -5.000000e+000
    endloop
  endfacet
  facet normal -1.000000e+000  0.000000e+000  0.000000e+000
    outer loop
      vertex -2.000000e+001  5.000000e+000  0.000000e+000
      vertex -2.000000e+001  1.100000e+000  5.000000e+000
      vertex -2.000000e+001  5.000000e+000  5.000000e+000
    endloop
  endfacet
  facet normal -9.999999e-001  0.000000e+000  0.000000e+000
    outer loop
      vertex -2.000000e+001  1.100000e+000  5.000000e+000
      vertex -2.000000e+001  5.000000e+000  0.000000e+000
      vertex -2.000000e+001  1.100000e+000  4.000000e+000
    endloop
  endfacet
  facet normal -1.000000e+000  0.000000e+000  -0.000000e+000
    outer loop
      vertex -2.000000e+001  1.100000e+000  4.000000e+000
      vertex -2.000000e+001  5.000000e+000  0.000000e+000
      vertex -2.000000e+001 -5.000000e+000 -4.440892e-015
    endloop
  endfacet
  facet normal -1.000000e+000  0.000000e+000  0.000000e+000
    outer loop
      vertex -2.000000e+001  1.100000e+000  4.000000e+000
      vertex -2.000000e+001 -5.000000e+000 -4.440892e-015
      vertex -2.000000e+001 -1.100000e+000  4.000000e+000
    endloop
  endfacet
  facet normal -1.000000e+000  -0.000000e+000  0.000000e+000
    outer loop
      vertex -2.000000e+001 -1.100000e+000  4.000000e+000
      vertex -2.000000e+001 -5.000000e+000 -4.440892e-015
      vertex -2.000000e+001 -5.000000e+000  5.000000e+000
    endloop
  endfacet
  facet normal -9.999999e-001  0.000000e+000  0.000000e+000
    outer loop
      vertex -2.000000e+001 -1.100000e+000  4.000000e+000
      vertex -2.000000e+001 -5.000000e+000  5.000000e+000
      vertex -2.000000e+001 -1.100000e+000  5.000000e+000
    endloop
  endfacet
  facet normal  0.000000e+000  1.000000e+000  0.000000e+000
    outer loop
      vertex -2.000000e+001  5.000000e+000  0.000000e+000
      vertex -2.000000e+001  5.000000e+000  5.000000e+000
      vertex  2.000000e+001  5.000000e+000  0.000000e+000
    endloop
  endfacet
  facet normal  0.000000e+000  1.000000e+000  -0.000000e+000
    outer loop
      vertex  2.000000e+001  5.000000e+000  0.000000e+000
      vertex -2.000000e+001  5.000000e+000  5.000000e+000
      vertex  2.000000e+001  5.000000e+000  5.000000e+000
    endloop
  endfacet
  facet normal  0.000000e+000  3.552713e-016  1.000000e+000
    outer loop
      vertex -2.000000e+001  1.000000e+001 -1.776357e-015
      vertex -2.000000e+001  5.000000e+000  0.000000e+000
      vertex  2.000000e+001  1.000000e+001 -1.776357e-015
    endloop
  endfacet
  facet normal  0.000000e+000  3.552713e-016  1.000000e+000
    outer loop
      vertex  2.000000e+001  1.000000e+001 -1.776357e-015
      vertex -2.000000e+001  5.000000e+000  0.000000e+000
      vertex  2.000000e+001  5.000000e+000  0.000000e+000
    endloop
  endfacet
  facet normal  0.000000e+000  1.000000e+000  0.000000e+000
    outer loop
      vertex -2.000000e+001  1.000000e+001 -5.000000e+000
      vertex -2.000000e+001  1.000000e+001 -1.776357e-015
      vertex  2.000000e+001  1.000000e+001 -5.000000e+000
    endloop
  endfacet
  facet normal  0.000000e+000  1.000000e+000  -0.000000e+000
    outer loop
      vertex  2.000000e+001  1.000000e+001 -5.000000e+000
      vertex -2.000000e+001  1.000000e+001 -1.776357e-015
      vertex  2.000000e+001  1.000000e+001 -1.776357e-015
    endloop
  endfacet
  facet normal  0.000000e+000 -1.000000e+000  0.000000e+000
    outer loop
      vertex -2.000000e+001 -1.000000e+001  0.000000e+000
      vertex -2.000000e+001 -1.000000e+001 -5.000000e+000
      vertex  2.000000e+001 -1.000000e+001  0.000000e+000
    endloop
  endfacet
  facet normal  0.000000e+000 -1.000000e+000  -0.000000e+000
    outer loop
      vertex  2.000000e+001 -1.000000e+001  0.000000e+000
      vertex -2.000000e+001 -1.000000e+001 -5.000000e+000
      vertex  2.000000e+001 -1.000000e+001 -5.000000e+000
    endloop
  endfacet
  facet normal  0.000000e+000  8.881784e-016  1.000000e+000
    outer loop
      vertex -2.000000e+001 -5.000000e+000 -4.440892e-015
      vertex -2.000000e+001 -1.000000e+001  0.000000e+000
      vertex  2.000000e+001 -5.000000e+000 -4.440892e-015
    endloop
  endfacet
  facet normal  0.000000e+000  8.881784e-016  1.000000e+000
    outer loop
      vertex  2.000000e+001 -5.000000e+000 -4.440892e-015
      vertex -2.000000e+001 -1.000000e+001  0.000000e+000
      vertex  2.000000e+001 -1.000000e+001  0.000000e+000
    endloop
  endfacet
  facet normal  0.000000e+000 -1.000000e+000  0.000000e+000
    outer loop
      vertex -2.000000e+001 -5.000000e+000  5.000000e+000
      vertex -2.000000e+001 -5.000000e+000 -4.440892e-015
      vertex  2.000000e+001 -5.000000e+000  5.000000e+000
    endloop
  endfacet
  facet normal  0.000000e+000 -1.000000e+000  -0.000000e+000
    outer loop
      vertex  2.000000e+001 -5.000000e+000  5.000000e+000
      vertex -2.000000e+001 -5.000000e+000 -4.440892e-015
      vertex  2.000000e+001 -5.000000e+000 -4.440892e-015
    endloop
  endfacet
endsolid CATIA STL
